<?xml version="1.0" encoding="UTF-8"?>
<svg width="19px" height="25px" viewBox="0 0 19 25" version="1.1" xmlns="http://www.w3.org/2000/svg" xmlns:xlink="http://www.w3.org/1999/xlink">
    <!-- Generator: Sketch 47.1 (45422) - http://www.bohemiancoding.com/sketch -->
    <title>identity/hedvig_symbol/hedvig_symbol_white</title>
    <desc>Created with Sketch.</desc>
    <defs></defs>
    <g id="Symbols" stroke="none" stroke-width="1" fill="none" fill-rule="evenodd">
        <g id="identity/hedvig_symbol/hedvig_symbol_white" fill="#FFFFFF">
            <g id="Group-2">
                <path d="M3.725,8.92928879 C5.22983946,7.82556613 7.08542132,7.1731 9.0906,7.1731 C14.1026,7.1731 18.1806,11.2511 18.1806,16.2631 L14.456,16.2631 L18.181,16.263 L18.181,24.998 L14.456,24.998 L14.456,16.2631 L14.4556,16.2631 C14.4556,13.3051 12.0486,10.8971 9.0906,10.8971 C6.15364409,10.8971 3.76049419,13.2693552 3.725,16.1970824 L3.725,25 L1.62630326e-19,25 L1.62630326e-19,16.2631 L-0.000400000001,16.2631 C-0.000400000001,16.2344202 -0.000266470371,16.205771 -8.08834873e-12,16.1771529 L1.62630326e-19,0 L3.725,0 L3.725,8.92928879 Z" id="Combined-Shape"></path>
            </g>
        </g>
    </g>
</svg>