<?xml version="1.0" encoding="UTF-8"?>
<svg width="72px" height="72px" viewBox="0 0 72 72" version="1.1" xmlns="http://www.w3.org/2000/svg" xmlns:xlink="http://www.w3.org/1999/xlink">
    <!-- Generator: Sketch 47.1 (45422) - http://www.bohemiancoding.com/sketch -->
    <title>icons/categories/lagenhet</title>
    <desc>Created with Sketch.</desc>
    <defs>
        <polygon id="path-1" points="0 55.498 72 55.498 72 -7.10542736e-15 0 -7.10542736e-15"></polygon>
    </defs>
    <g id="Symbols" stroke="none" stroke-width="1" fill="none" fill-rule="evenodd">
        <g id="icons/categories/lagenhet">
            <g id="Page-1" transform="translate(0.000000, 8.000000)">
                <path d="M18.4707,46.6328 L22.0757,46.6328 L22.0757,42.3588 C22.0757,41.3638 21.2677,40.5558 20.2737,40.5558 C19.2797,40.5558 18.4707,41.3638 18.4707,42.3588 L18.4707,46.6328 Z M26.0757,50.6328 L14.4707,50.6328 L14.4707,42.3588 C14.4707,39.1588 17.0747,36.5558 20.2737,36.5558 C23.4727,36.5558 26.0757,39.1588 26.0757,42.3588 L26.0757,50.6328 Z" id="Fill-1" fill="#1BE9B6"></path>
                <mask id="mask-2" fill="white">
                    <use xlink:href="#path-1"></use>
                </mask>
                <g id="Clip-4"></g>
                <polygon id="Fill-3" fill="#1BE9B6" mask="url(#mask-2)" points="2.449 55.498 6.449 55.498 6.449 36.816 2.449 36.816"></polygon>
                <polygon id="Fill-5" fill="#009175" mask="url(#mask-2)" points="2.8281 41.5664 0.0001 38.7384 20.3311 18.4064 37.1451 35.2194 34.3171 38.0474 20.3311 24.0624"></polygon>
                <path d="M49.8613,27.0087 L53.4663,27.0087 L53.4663,22.7347 C53.4663,21.7397 52.6583,20.9317 51.6643,20.9317 C50.6703,20.9317 49.8613,21.7397 49.8613,22.7347 L49.8613,27.0087 Z M57.4663,31.0087 L45.8613,31.0087 L45.8613,22.7347 C45.8613,19.5347 48.4653,16.9317 51.6643,16.9317 C54.8633,16.9317 57.4663,19.5347 57.4663,22.7347 L57.4663,31.0087 Z" id="Fill-6" fill="#1BE9B6" mask="url(#mask-2)"></path>
                <path d="M49.8613,46.6328 L53.4663,46.6328 L53.4663,42.3588 C53.4663,41.3638 52.6583,40.5558 51.6643,40.5558 C50.6703,40.5558 49.8613,41.3638 49.8613,42.3588 L49.8613,46.6328 Z M57.4663,50.6328 L45.8613,50.6328 L45.8613,42.3588 C45.8613,39.1588 48.4653,36.5558 51.6643,36.5558 C54.8633,36.5558 57.4663,39.1588 57.4663,42.3588 L57.4663,50.6328 Z" id="Fill-7" fill="#1BE9B6" mask="url(#mask-2)"></path>
                <polygon id="Fill-8" fill="#1BE9B6" mask="url(#mask-2)" points="61.4199 13.9746 61.3399 3.6836 65.3399 3.6526 65.4199 13.9436"></polygon>
                <polygon id="Fill-9" fill="#1BE9B6" mask="url(#mask-2)" points="65.519 55.434 69.519 55.434 69.519 18.412 65.519 18.412"></polygon>
                <polygon id="Fill-10" fill="#1BE9B6" mask="url(#mask-2)" points="33.819 55.434 37.819 55.434 37.819 18.412 33.819 18.412"></polygon>
                <polygon id="Fill-11" fill="#009175" mask="url(#mask-2)" points="34.1562 23.2021 31.3282 20.3741 51.7022 0.0001 72.0002 20.2981 69.1722 23.1261 51.7022 5.6561"></polygon>
            </g>
        </g>
    </g>
</svg>