<?xml version="1.0" encoding="UTF-8"?>
<svg width="40px" height="40px" viewBox="0 0 40 40" version="1.1" xmlns="http://www.w3.org/2000/svg" xmlns:xlink="http://www.w3.org/1999/xlink">
    <!-- Generator: Sketch 47.1 (45422) - http://www.bohemiancoding.com/sketch -->
    <title>icons/chat/restart</title>
    <desc>Created with Sketch.</desc>
    <defs></defs>
    <g id="Symbols" stroke="none" stroke-width="1" fill="none" fill-rule="evenodd">
        <g id="icons/chat/restart">
            <g id="Page-1">
                <polygon id="Fill-1" points="0 40 40 40 40 0 0 0"></polygon>
                <g id="Group-6" transform="translate(8.500000, 7.000000)" fill-rule="nonzero" fill="#414150">
                    <path d="M0.828072102,9.69084328 C0.230575441,11.1225983 -0.0809576923,12.6664894 -0.0809576923,14.2549931 C-0.0809576923,20.7327432 5.10216876,25.9860966 11.4997346,25.9860966 C17.8974567,25.9860966 23.0813115,20.7325843 23.0813115,14.2549931 C23.0813115,7.77815371 17.8973136,2.52478621 11.4997346,2.52478621 L10.9997346,2.52478621 L10.9997346,3.52478621 L11.4997346,3.52478621 C17.3420315,3.52478621 22.0813115,8.32748483 22.0813115,14.2549931 C22.0813115,20.1832654 17.3421621,24.9860966 11.4997346,24.9860966 C5.65748845,24.9860966 0.919042308,20.1834485 0.919042308,14.2549931 C0.919042308,12.7991943 1.20417077,11.3861591 1.75093559,10.0759705 L1.94349921,9.61453877 L1.02063572,9.22941154 L0.828072102,9.69084328 Z" id="Stroke-2"></path>
                    <polygon id="Stroke-4" points="14.3428178 0.483254594 13.6309884 -0.219097801 10.4306733 3.02440001 13.6311134 6.26687794 14.3428187 5.56439973 11.8356267 3.02427585"></polygon>
                </g>
            </g>
        </g>
    </g>
</svg>