<?xml version="1.0" encoding="UTF-8"?>
<svg width="40px" height="40px" viewBox="0 0 40 40" version="1.1" xmlns="http://www.w3.org/2000/svg" xmlns:xlink="http://www.w3.org/1999/xlink">
    <!-- Generator: Sketch 47.1 (45422) - http://www.bohemiancoding.com/sketch -->
    <title>icons/profil/bankkonto</title>
    <desc>Created with Sketch.</desc>
    <defs></defs>
    <g id="Symbols" stroke="none" stroke-width="1" fill="none" fill-rule="evenodd">
        <g id="icons/profil/bankkonto">
            <circle id="Oval" fill="#F9FAFC" cx="20" cy="20" r="20"></circle>
            <g id="Group-3" transform="translate(9.299999, 5.799988)">
                <path d="M14.712928,7.68597869 C14.455072,6.39669869 13.391416,4.72063469 10.619464,4.72063469 C8.45992,4.72063469 6.638812,6.26777069 6.638812,8.29838669 C6.638812,10.0227987 7.81528,11.1992667 9.636388,11.5699347 L11.231872,11.8922547 C12.118252,12.0695307 12.617848,12.5852427 12.617848,13.2459987 C12.617848,14.0517987 11.957092,14.6480907 10.764508,14.6480907 C9.152908,14.6480907 8.363224,13.6327827 8.266528,12.5046627 L6.20368,13.0526067 C6.380956,14.6803227 7.718584,16.6303587 10.748392,16.6303587 C13.407532,16.6303587 14.874088,14.8575987 14.874088,13.1009547 C14.874088,11.4893547 13.762084,10.1356107 11.68312,9.73271069 L10.087636,9.42650669 C9.249604,9.26534669 8.846704,8.76575069 8.846704,8.13722669 C8.846704,7.37977469 9.555808,6.68678669 10.63558,6.68678669 C12.08602,6.68678669 12.601732,7.66986269 12.714544,8.29838669 L14.712928,7.68597869 Z" id="S" fill="#009175"></path>
                <polygon id="Stroke-8" fill="#1BE9B6" fill-rule="nonzero" points="9.7252 3.7117 9.7252 18.1657 11.7252 18.1657 11.7252 3.7117"></polygon>
                <path d="M19.4508,13.3499 L19.4508,25.9069 C19.4508,26.343184 19.0939466,26.6999 18.6578,26.6999 L2.7938,26.6999 C2.35672208,26.6999 1.9998,26.3432526 1.9998,25.9069 L1.9998,13.3499 L-0.0002,13.3499 L-0.0002,25.9069 C-0.0002,27.4481669 1.2524971,28.6999 2.7938,28.6999 L18.6578,28.6999 C20.1983438,28.6999 21.4508,27.4479259 21.4508,25.9069 L21.4508,13.3499 L19.4508,13.3499 Z" id="Stroke-1" fill="#1BE9B6" fill-rule="nonzero"></path>
                <polygon id="Stroke-3" fill="#009175" fill-rule="nonzero" points="15.9278 21.3787 5.5228 21.3787 5.5228 23.3787 15.9278 23.3787"></polygon>
                <path d="M2.0001,14.3499 L2.0001,2.7929 C2.0001,2.35675338 2.35681602,1.9999 2.7931,1.9999 L18.6571,1.9999 C19.0937465,1.9999 19.4511,2.35711605 19.4511,2.7929 L19.4511,14.3499 L21.4511,14.3499 L21.4511,2.7929 C21.4511,1.25237422 20.1981437,-0.0001 18.6571,-0.0001 L2.7931,-0.0001 C1.25207412,-0.0001 0.0001,1.25235621 0.0001,2.7929 L0.0001,14.3499 L2.0001,14.3499 Z" id="Stroke-5" fill="#009175" fill-rule="nonzero"></path>
            </g>
        </g>
    </g>
</svg>