<?xml version="1.0" encoding="UTF-8"?>
<svg width="40px" height="40px" viewBox="0 0 40 40" version="1.1" xmlns="http://www.w3.org/2000/svg" xmlns:xlink="http://www.w3.org/1999/xlink">
    <!-- Generator: Sketch 47.1 (45422) - http://www.bohemiancoding.com/sketch -->
    <title>icons/profil/share</title>
    <desc>Created with Sketch.</desc>
    <defs></defs>
    <g id="Symbols" stroke="none" stroke-width="1" fill="none" fill-rule="evenodd">
        <g id="icons/profil/share">
            <circle id="Oval-2" fill="#F9FAFC" cx="20" cy="20" r="20"></circle>
            <g id="Page-1" transform="translate(11.000000, 4.000000)">
                <path d="M12.9996,9.9673 L12.9996,11.9673 L16.0006,11.9673 L16.0006,25.9673 L1.9996,25.9673 L1.9996,11.9673 L5.0006,11.9673 L5.0006,9.9673 L0.9996,9.9673 L0.9996,9.9673 C0.44731525,9.9673 -0.0004,10.4150153 -0.0004,10.9673 L-0.0004,26.9673 L-0.0004,26.9673 C-0.0004,27.5195847 0.44731525,27.9673 0.9996,27.9673 L16.9996,27.9673 L16.9996,27.9673 C17.5518847,27.9673 17.9996,27.5195847 17.9996,26.9673 L17.9996,10.9673 L17.9996,10.9673 C17.9996,10.4150153 17.5518847,9.9673 16.9996,9.9673 L12.9996,9.9673 Z" id="Fill-1" fill="#651EFF"></path>
                <polygon id="Fill-2" fill="#0F007A" points="8.9586 -0.0002 1.8086 6.8258 3.1906 8.2728 8.0006 3.6808 8.0006 18.9668 9.9996 18.9668 9.9996 3.7598 14.7256 8.2728 16.1076 6.8258"></polygon>
            </g>
        </g>
    </g>
</svg>