<?xml version="1.0" encoding="UTF-8"?>
<svg width="16px" height="16px" viewBox="0 0 16 16" version="1.1" xmlns="http://www.w3.org/2000/svg" xmlns:xlink="http://www.w3.org/1999/xlink">
    <!-- Generator: Sketch 47.1 (45422) - http://www.bohemiancoding.com/sketch -->
    <title>icons/list_items/states/info_missing</title>
    <desc>Created with Sketch.</desc>
    <defs></defs>
    <g id="Symbols" stroke="none" stroke-width="1" fill="none" fill-rule="evenodd">
        <g id="icons/list_items/states/info_missing">
            <circle id="Oval" fill="#FFB300" cx="8" cy="8" r="8"></circle>
            <path d="M8.385,9.69 C8.374,9.624 8.374,9.569 8.374,9.547 C8.374,9.118 8.561,8.755 8.924,8.502 L9.397,8.172 C10.035,7.721 10.497,7.105 10.497,6.236 C10.497,5.114 9.617,4.036 7.989,4.036 C6.328,4.036 5.503,5.235 5.503,6.335 C5.503,6.511 5.525,6.687 5.569,6.841 L6.812,6.929 C6.768,6.808 6.746,6.599 6.746,6.434 C6.746,5.807 7.175,5.18 7.989,5.18 C8.792,5.18 9.177,5.719 9.177,6.291 C9.177,6.665 9.023,6.984 8.66,7.248 L8.154,7.611 C7.516,8.073 7.263,8.612 7.263,9.272 C7.263,9.426 7.274,9.547 7.285,9.69 L8.385,9.69 Z M7.043,11.274 C7.043,11.714 7.395,12.077 7.846,12.077 C8.286,12.077 8.649,11.714 8.649,11.274 C8.649,10.834 8.286,10.46 7.846,10.46 C7.395,10.46 7.043,10.834 7.043,11.274 Z" id="?" fill="#FFFFFF"></path>
        </g>
    </g>
</svg>