<?xml version="1.0" encoding="UTF-8"?>
<svg width="40px" height="40px" viewBox="0 0 40 40" version="1.1" xmlns="http://www.w3.org/2000/svg" xmlns:xlink="http://www.w3.org/1999/xlink">
    <!-- Generator: Sketch 47.1 (45422) - http://www.bohemiancoding.com/sketch -->
    <title>icons/perils/jag/forsenad_resa</title>
    <desc>Created with Sketch.</desc>
    <defs></defs>
    <g id="Symbols" stroke="none" stroke-width="1" fill="none" fill-rule="evenodd">
        <g id="icons/perils/jag/forsenad_resa">
            <g id="Page-1">
                <g id="Group-3" fill="#F9FAFC">
                    <path d="M20,40.0002 L20,40.0002 C8.955,40.0002 4.05009278e-13,31.0462 4.05009278e-13,20.0002 C4.05009278e-13,8.9542 8.955,0.0002 20,0.0002 C31.046,0.0002 40,8.9542 40,20.0002 C40,31.0462 31.046,40.0002 20,40.0002" id="Fill-1"></path>
                </g>
                <polygon id="Stroke-4" fill="#0F007A" fill-rule="nonzero" points="21.3902018 21.1476671 21.0523982 23.1189329 31.4823 24.9062403 31.4823 19.9953 29.4823 19.9953 29.4823 22.5343597"></polygon>
                <polygon id="Stroke-5" fill="#0F007A" fill-rule="nonzero" points="7.6754 20.6737601 16.3055923 17.245353 15.5672077 15.386647 5.6754 19.3162399 5.6754 24.9059403 16.1053018 23.1186329 15.7674982 21.1473671 7.6754 22.5340597"></polygon>
                <g id="Group-12" transform="translate(12.000000, 5.000000)" fill-rule="nonzero">
                    <path d="M6.5787,24.8246071 L2.09849326,25.6972594 L4.91313922,23.0277284 L4.93669915,4.97570511 C4.9367,4.19143561 5.48975018,3.52135525 6.24750412,3.36603141 L5.84589588,1.40676859 C4.16235151,1.75186025 2.9367,3.23687019 2.9367,4.9744 L2.9142608,22.1670716 L0.0237,24.9086035 L0.0237,28.1389724 L6.5787,26.8621929 L13.1337,28.1389724 L13.1337,24.9087058 L10.2441159,22.1671516 L10.2346991,15.2420402 L8.23470092,15.2447598 L8.24528413,23.0276484 L11.0590751,25.6972922 L6.5787,24.8246071 Z" id="Stroke-6" fill="#651EFF"></path>
                    <path d="M18.8543,7.3342 C18.8543,4.59948475 16.6370153,2.3822 13.9023,2.3822 C11.1678274,2.3822 8.9513,4.59924202 8.9513,7.3342 C8.9513,10.069158 11.1678274,12.2862 13.9023,12.2862 C16.6370153,12.2862 18.8543,10.0689153 18.8543,7.3342 Z M20.8543,7.3342 C20.8543,11.1734847 17.7415847,14.2862 13.9023,14.2862 C10.063154,14.2862 6.9513,11.1736236 6.9513,7.3342 C6.9513,3.49477643 10.063154,0.3822 13.9023,0.3822 C17.7415847,0.3822 20.8543,3.49491525 20.8543,7.3342 Z" id="Stroke-8" fill="#0F007A"></path>
                    <polygon id="Stroke-10" fill="#651EFF" points="14.3538 4.0784 12.3538 4.0784 12.3538 8.8914 17.1498 8.8914 17.1498 6.8914 14.3538 6.8914"></polygon>
                </g>
            </g>
        </g>
    </g>
</svg>