<?xml version="1.0" encoding="UTF-8"?>
<svg width="40px" height="40px" viewBox="0 0 40 40" version="1.1" xmlns="http://www.w3.org/2000/svg" xmlns:xlink="http://www.w3.org/1999/xlink">
    <!-- Generator: Sketch 47.1 (45422) - http://www.bohemiancoding.com/sketch -->
    <title>icons/perils/jag/forsenat_bagage</title>
    <desc>Created with Sketch.</desc>
    <defs></defs>
    <g id="Symbols" stroke="none" stroke-width="1" fill="none" fill-rule="evenodd">
        <g id="icons/perils/jag/forsenat_bagage">
            <g id="Page-1">
                <g id="Group-3" fill="#F9FAFC">
                    <path d="M20,40.0002 L20,40.0002 C8.955,40.0002 4.05009278e-13,31.0462 4.05009278e-13,20.0002 C4.05009278e-13,8.9542 8.955,0.0002 20,0.0002 C31.046,0.0002 40,8.9542 40,20.0002 C40,31.0462 31.046,40.0002 20,40.0002" id="Fill-1"></path>
                </g>
                <g id="Group-22" transform="translate(4.000000, 5.000000)">
                    <path d="M22.3997,5.1838 C22.3997,2.37051525 20.1189847,0.0898 17.3057,0.0898 C14.4931076,0.0898 12.2117,2.37082279 12.2117,5.1838 L14.2117,5.1838 C14.2117,3.47546783 15.5976016,2.0898 17.3057,2.0898 C19.0144153,2.0898 20.3997,3.47508475 20.3997,5.1838 L22.3997,5.1838 Z" id="Stroke-4" fill="#651EFF" fill-rule="nonzero"></path>
                    <polygon id="Stroke-6" fill="#651EFF" fill-rule="nonzero" points="7.2762 10.0373 27.3362 10.0373 27.3362 8.0373 7.2762 8.0373"></polygon>
                    <path d="M8.2762,10.1223 L8.2762,6.0903 C8.2762,6.04158475 8.31448475,6.0033 8.3632,6.0033 L26.2492,6.0033 C26.2969273,6.0033 26.3352,6.04159702 26.3352,6.0903 L26.3352,19.1363 C26.3352,19.1839779 26.2959528,19.2233 26.2492,19.2233 L17.3692,19.2233 L17.3692,21.2233 L26.2492,21.2233 C27.4013768,21.2233 28.3352,20.2876947 28.3352,19.1363 L28.3352,6.0903 C28.3352,4.93731214 27.4017816,4.0033 26.2492,4.0033 L8.3632,4.0033 C7.20991525,4.0033 6.2762,4.93701525 6.2762,6.0903 L6.2762,10.1223 L8.2762,10.1223 Z" id="Stroke-8" fill="#0F007A" fill-rule="nonzero"></path>
                    <path d="M13.2181,19.3762 C13.2181,16.5436141 10.9229446,14.2482 8.0911,14.2482 C5.25901412,14.2482 2.9631,16.5438553 2.9631,19.3762 C2.9631,22.2076741 5.25914353,24.5032 8.0911,24.5032 C10.9228153,24.5032 13.2181,22.2079153 13.2181,19.3762 Z M15.2181,19.3762 C15.2181,23.3124847 12.0273847,26.5032 8.0911,26.5032 C4.15467496,26.5032 0.9631,23.3123445 0.9631,19.3762 C0.9631,15.4392354 4.15449509,12.2482 8.0911,12.2482 C12.0275646,12.2482 15.2181,15.4390951 15.2181,19.3762 Z" id="Stroke-10" fill="#0F007A" fill-rule="nonzero"></path>
                    <polygon id="Stroke-12" fill="#651EFF" fill-rule="nonzero" points="8.5257 16.0237 6.5257 16.0237 6.5257 20.9497 11.4337 20.9497 11.4337 18.9497 8.5257 18.9497"></polygon>
                    <path d="M17.9896,24.5774 C17.9896,23.9764 17.5036,23.4904 16.9036,23.4904 C16.3026,23.4904 15.8166,23.9764 15.8166,24.5774 C15.8166,25.1784 16.3026,25.6644 16.9036,25.6644 C17.5036,25.6644 17.9896,25.1784 17.9896,24.5774" id="Fill-14" fill="#651EFF"></path>
                    <path d="M21.4671,24.5774 C21.4671,23.9764 20.9811,23.4904 20.3811,23.4904 C19.7801,23.4904 19.2941,23.9764 19.2941,24.5774 C19.2941,25.1784 19.7801,25.6644 20.3811,25.6644 C20.9811,25.6644 21.4671,25.1784 21.4671,24.5774" id="Fill-16" fill="#651EFF"></path>
                    <path d="M24.9447,24.5774 C24.9447,23.9764 24.4587,23.4904 23.8587,23.4904 C23.2577,23.4904 22.7717,23.9764 22.7717,24.5774 C22.7717,25.1784 23.2577,25.6644 23.8587,25.6644 C24.4587,25.6644 24.9447,25.1784 24.9447,24.5774" id="Fill-18" fill="#651EFF"></path>
                    <path d="M28.4222,24.5774 C28.4222,23.9764 27.9362,23.4904 27.3352,23.4904 C26.7352,23.4904 26.2492,23.9764 26.2492,24.5774 C26.2492,25.1784 26.7352,25.6644 27.3352,25.6644 C27.9362,25.6644 28.4222,25.1784 28.4222,24.5774" id="Fill-20" fill="#651EFF"></path>
                </g>
            </g>
        </g>
    </g>
</svg>