<?xml version="1.0" encoding="UTF-8"?>
<svg width="40px" height="40px" viewBox="0 0 40 40" version="1.1" xmlns="http://www.w3.org/2000/svg" xmlns:xlink="http://www.w3.org/1999/xlink">
    <!-- Generator: Sketch 47.1 (45422) - http://www.bohemiancoding.com/sketch -->
    <title>icons/perils/jag/id_kapning</title>
    <desc>Created with Sketch.</desc>
    <defs></defs>
    <g id="Symbols" stroke="none" stroke-width="1" fill="none" fill-rule="evenodd">
        <g id="icons/perils/jag/id_kapning">
            <g id="Page-1-Copy-4">
                <g id="Group-3" fill="#F9FAFC">
                    <path d="M20,40.0002 L20,40.0002 C8.955,40.0002 4.05009278e-13,31.0462 4.05009278e-13,20.0002 C4.05009278e-13,8.9542 8.955,0.0002 20,0.0002 C31.046,0.0002 40,8.9542 40,20.0002 C40,31.0462 31.046,40.0002 20,40.0002" id="Fill-1"></path>
                </g>
                <path d="M19.828,25.173 L22.873,25.173 C25.624,25.173 27.934,23.325 27.934,19.587 C27.934,15.828 25.666,13.938 22.915,13.938 L19.828,13.938 L19.828,25.173 Z M22.936,27 L17.77,27 L17.77,12.111 L22.978,12.111 C26.758,12.111 30.055,14.694 30.055,19.587 C30.055,24.459 26.716,27 22.936,27 Z" id="ID" fill="#651EFF"></path>
                <polygon id="Path" fill="#0F007A" points="13.99 27 13.99 12.111 11.89 12.111 11.89 27"></polygon>
            </g>
        </g>
    </g>
</svg>