<?xml version="1.0" encoding="UTF-8"?>
<svg width="40px" height="40px" viewBox="0 0 40 40" version="1.1" xmlns="http://www.w3.org/2000/svg" xmlns:xlink="http://www.w3.org/1999/xlink">
    <!-- Generator: Sketch 47.1 (45422) - http://www.bohemiancoding.com/sketch -->
    <title>icons/perils/jag/olycka_pa_resa</title>
    <desc>Created with Sketch.</desc>
    <defs></defs>
    <g id="Symbols" stroke="none" stroke-width="1" fill="none" fill-rule="evenodd">
        <g id="icons/perils/jag/olycka_pa_resa">
            <g id="Page-1">
                <g id="Group-3" fill="#F9FAFC">
                    <path d="M20,40.0002 L20,40.0002 C8.955,40.0002 4.05009278e-13,31.0462 4.05009278e-13,20.0002 C4.05009278e-13,8.9542 8.955,0.0002 20,0.0002 C31.046,0.0002 40,8.9542 40,20.0002 C40,31.0462 31.046,40.0002 20,40.0002" id="Fill-1"></path>
                </g>
                <g id="Group-24" transform="translate(8.000000, 8.000000)">
                    <path d="M12.8436,10.7346 C12.3776,11.2006 11.6226,11.2006 11.1566,10.7346 C10.6906,10.2686 10.6906,9.5136 11.1566,9.0476 C11.6226,8.5826 12.3776,8.5826 12.8436,9.0476 C13.3096,9.5136 13.3096,10.2686 12.8436,10.7346" id="Fill-4" fill="#651EFF"></path>
                    <path d="M14.952,12.843 C14.486,13.309 13.731,13.309 13.265,12.843 C12.799,12.377 12.799,11.622 13.265,11.156 C13.731,10.691 14.486,10.691 14.952,11.156 C15.418,11.622 15.418,12.377 14.952,12.843" id="Fill-6" fill="#651EFF"></path>
                    <path d="M10.7347,12.843 C10.2687,13.309 9.5137,13.309 9.0477,12.843 C8.5827,12.377 8.5827,11.622 9.0477,11.156 C9.5137,10.691 10.2687,10.691 10.7347,11.156 C11.2007,11.622 11.2007,12.377 10.7347,12.843" id="Fill-8" fill="#651EFF"></path>
                    <path d="M12.8436,14.9524 C12.3776,15.4184 11.6226,15.4184 11.1566,14.9524 C10.6906,14.4864 10.6906,13.7304 11.1566,13.2654 C11.6226,12.7994 12.3776,12.7994 12.8436,13.2654 C13.3096,13.7304 13.3096,14.4864 12.8436,14.9524" id="Fill-10" fill="#651EFF"></path>
                    <path d="M20.1617184,12.0002 L11.9993476,20.1613612 L3.83818644,12.0002 L11.9993476,3.83903883 L20.1617184,12.0002 Z M11.9994524,6.66736117 L6.66661356,12.0002 L11.9994524,17.3330388 L17.3330816,12.0002 L11.9994524,6.66736117 Z" id="Stroke-12" fill="#0F007A" fill-rule="nonzero"></path>
                    <path d="M6.66841355,12.0010061 L2.31320984,7.6469963 C1.9227557,7.25604178 1.9227557,6.62285787 2.31330678,6.23230678 L6.23230678,2.31330678 C6.62285787,1.9227557 7.25604178,1.9227557 7.64754577,2.31375904 L11.2939963,5.96120984 L12.0010061,6.66841355 L13.4154135,5.25439386 L9.0614037,0.899190156 C7.88835822,-0.272355696 5.98954213,-0.272355696 4.81809322,0.899093219 L0.899093219,4.81809322 C-0.272355696,5.98954213 -0.272355696,7.88835822 0.89864096,9.06085423 L4.54719016,12.7084037 L5.25439386,13.4154135 L6.66841355,12.0010061 Z" id="Stroke-14" fill="#0F007A" fill-rule="nonzero"></path>
                    <polygon id="Stroke-16" fill="#651EFF" fill-rule="nonzero" points="13.4184136 18.7512 5.2542 10.5869864 3.83998644 12.0012 12.0042 20.1654136"></polygon>
                    <path d="M17.3375865,12.0039059 L21.6865962,16.3541097 C22.0771688,16.7441827 22.0771688,17.3770174 21.686241,17.7684458 L17.7676932,21.6869932 C17.377293,22.0773934 16.7438074,22.0773934 16.3543596,21.6874463 L12.7109068,18.0439932 L12.0038,17.3368864 L10.5895864,18.7511 L14.9396932,23.1012068 C16.1097926,24.2728066 18.010307,24.2728066 19.1819068,23.1012068 L23.1009068,19.1822068 C24.2724312,18.0091826 24.2724312,16.1100173 23.1004537,14.9395404 L19.4590038,11.2970903 L18.7519941,10.5898865 L17.3375865,12.0039059 Z" id="Stroke-18" fill="#0F007A" fill-rule="nonzero"></path>
                    <polygon id="Stroke-20" fill="#651EFF" fill-rule="nonzero" points="10.5870864 5.2541 18.7513 13.4183136 20.1655136 12.0041 12.0013 3.83988644"></polygon>
                    <path d="M11.9998,17.3330864 L7.64669322,21.6861932 C7.25579316,22.0775935 6.62330706,22.0775935 6.23190678,21.6861932 L2.31281655,17.768103 C1.9232048,17.3774908 1.9232048,16.7436087 2.31335962,16.3529537 L16.3529068,2.31340678 C16.7433825,1.92293107 17.3772175,1.92293107 17.7676932,2.31340678 L21.6866932,6.23240678 C22.0771689,6.62288249 22.0771689,7.25571751 21.6866932,7.64619322 L10.5855864,18.7473 L11.9998,20.1615136 L23.1009068,9.06040678 C24.2724311,7.88888249 24.2724311,5.98971751 23.1009068,4.81819322 L19.1819068,0.899193219 C18.0103825,-0.272331073 16.1102175,-0.272331073 14.9386932,0.899193219 L0.898693219,14.9391932 C-0.271604799,16.1109913 -0.271604799,18.0091092 0.897788413,19.1815008 L4.81778345,23.100497 C5.99029294,24.2730065 7.88980684,24.2730065 9.06135904,23.0999542 L12.7069068,19.4544068 L13.4140136,18.7473 L11.9998,17.3330864 Z" id="Stroke-22" fill="#651EFF" fill-rule="nonzero"></path>
                </g>
            </g>
        </g>
    </g>
</svg>