<?xml version="1.0" encoding="UTF-8"?>
<svg width="40px" height="40px" viewBox="0 0 40 40" version="1.1" xmlns="http://www.w3.org/2000/svg" xmlns:xlink="http://www.w3.org/1999/xlink">
    <!-- Generator: Sketch 47.1 (45422) - http://www.bohemiancoding.com/sketch -->
    <title>icons/perils/jag/overfall</title>
    <desc>Created with Sketch.</desc>
    <defs></defs>
    <g id="Symbols" stroke="none" stroke-width="1" fill="none" fill-rule="evenodd">
        <g id="icons/perils/jag/overfall">
            <g id="Page-1">
                <g id="Group-3" fill="#F9FAFC">
                    <path d="M20.0001,40.0002 L20.0001,40.0002 C8.9541,40.0002 0.0001,31.0452 0.0001,20.0002 C0.0001,8.9542 8.9541,0.0002 20.0001,0.0002 C31.0451,0.0002 40.0001,8.9542 40.0001,20.0002 C40.0001,31.0452 31.0451,40.0002 20.0001,40.0002" id="Fill-1"></path>
                </g>
                <polygon id="Stroke-4" fill="#0F007A" fill-rule="nonzero" points="11.772 18.2023 17.593 18.2023 17.593 16.2023 11.772 16.2023"></polygon>
                <g id="Group-13" transform="translate(5.000000, 5.000000)">
                    <path d="M10.5490183,21.7008362 C13.2424449,19.8981071 16.7572661,19.8981071 19.4517085,21.700921 L20.2828295,22.2570126 L21.3950126,20.5947705 L20.5638915,20.038679 C17.1963339,17.7854929 12.8031551,17.7854929 9.4365817,20.0387638 L8.60554548,20.5949821 L9.71798208,22.2570545 L10.5490183,21.7008362 Z" id="Stroke-5" fill="#651EFF" fill-rule="nonzero"></path>
                    <path d="M27.4913,15.0002 C27.4913,8.10127108 21.8988016,2.5082 15.0003,2.5082 C8.1017984,2.5082 2.5093,8.10127108 2.5093,15.0002 C2.5093,21.8989153 8.10158475,27.4912 15.0003,27.4912 C21.8990153,27.4912 27.4913,21.8989153 27.4913,15.0002 Z M29.4913,15.0002 C29.4913,23.0034847 23.0035847,29.4912 15.0003,29.4912 C6.99701525,29.4912 0.5093,23.0034847 0.5093,15.0002 C0.5093,6.99674742 6.99718306,0.5082 15.0003,0.5082 C23.0034169,0.5082 29.4913,6.99674742 29.4913,15.0002 Z" id="Stroke-7" fill="#0F007A" fill-rule="nonzero"></path>
                    <path d="M23.899,12.0856 C23.899,14.2948847 22.1082847,16.0856 19.899,16.0856 C17.6897153,16.0856 15.899,14.2948847 15.899,12.0856 C15.899,9.87631525 17.6897153,8.0856 19.899,8.0856 C22.1082847,8.0856 23.899,9.87631525 23.899,12.0856 Z M21.899,12.0856 C21.899,10.9808847 21.0037153,10.0856 19.899,10.0856 C18.7942847,10.0856 17.899,10.9808847 17.899,12.0856 C17.899,13.1903153 18.7942847,14.0856 19.899,14.0856 C21.0037153,14.0856 21.899,13.1903153 21.899,12.0856 Z" id="Stroke-9" fill="#651EFF" fill-rule="nonzero"></path>
                    <path d="M21.899,12.0856 C21.899,10.9816 21.003,10.0856 19.899,10.0856 C18.794,10.0856 17.899,10.9816 17.899,12.0856 C17.899,13.1896 18.794,14.0856 19.899,14.0856 C21.003,14.0856 21.899,13.1896 21.899,12.0856" id="Fill-11" fill="#0F007A"></path>
                </g>
            </g>
        </g>
    </g>
</svg>