<?xml version="1.0" encoding="UTF-8"?>
<svg width="40px" height="40px" viewBox="0 0 40 40" version="1.1" xmlns="http://www.w3.org/2000/svg" xmlns:xlink="http://www.w3.org/1999/xlink">
    <!-- Generator: Sketch 47.1 (45422) - http://www.bohemiancoding.com/sketch -->
    <title>icons/perils/jag/juridisk_tvist</title>
    <desc>Created with Sketch.</desc>
    <defs></defs>
    <g id="Symbols" stroke="none" stroke-width="1" fill="none" fill-rule="evenodd">
        <g id="icons/perils/jag/juridisk_tvist">
            <g id="Page-1">
                <g id="Group-3" fill="#F9FAFC">
                    <path d="M20.0001,40 L20.0001,40 C8.9541,40 0.0001,31.046 0.0001,20 C0.0001,8.954 8.9541,0 20.0001,0 C31.0451,0 40.0001,8.954 40.0001,20 C40.0001,31.046 31.0451,40 20.0001,40" id="Fill-1"></path>
                </g>
                <g id="Group-16" transform="translate(9.000000, 6.000000)" fill-rule="nonzero">
                    <path d="M2.1729,23.5408 L2.1729,2.3038 C2.1729,2.24708475 2.21818475,2.2018 2.2749,2.2018 L19.7249,2.2018 C19.7816153,2.2018 19.8269,2.24708475 19.8269,2.3038 L19.8269,20.2828 L21.8269,20.2828 L21.8269,2.3038 C21.8269,1.14251525 20.8861847,0.2018 19.7249,0.2018 L2.2749,0.2018 C1.11361525,0.2018 0.1729,1.14251525 0.1729,2.3038 L0.1729,23.5408 L2.1729,23.5408 Z" id="Stroke-4" fill="#0F007A"></path>
                    <polygon id="Stroke-6" fill="#651EFF" points="0.338 24.5408 21.827 24.5408 21.827 22.5408 0.338 22.5408"></polygon>
                    <path d="M21.8272,25.7986 L4.4312,25.7986 C3.18387756,25.7986 2.1732,24.7877081 2.1732,23.5406 C2.1732,22.2928847 3.18348475,21.2826 4.4312,21.2826 L21.8272,21.2826 L21.8272,19.2826 L4.4312,19.2826 C2.07891525,19.2826 0.1732,21.1883153 0.1732,23.5406 C0.1732,25.8921827 2.07921313,27.7986 4.4312,27.7986 L21.8272,27.7986 L21.8272,25.7986 Z" id="Stroke-8" fill="#0F007A"></path>
                    <path d="M11.0826,8.0574 C10.6568847,8.0574 10.3116,7.71211525 10.3116,7.2864 C10.3116,6.86161745 10.6569521,6.5164 11.0826,6.5164 L13.6096,6.5164 L13.6096,4.5164 L11.0826,4.5164 C9.55255726,4.5164 8.3116,5.75687327 8.3116,7.2864 C8.3116,8.81668475 9.55231525,10.0574 11.0826,10.0574 L11.0826,8.0574 Z" id="Stroke-10" fill="#651EFF"></path>
                    <path d="M11.8531,10.8279 C11.8531,10.401752 11.5083825,10.0569 11.0821,10.0569 C10.6567502,10.0569 10.3121,10.4018193 10.3121,10.8279 C10.3121,11.254548 10.6563176,11.5989 11.0821,11.5989 C11.5088153,11.5989 11.8531,11.2546153 11.8531,10.8279 Z M13.8531,10.8279 C13.8531,12.3591847 12.6133847,13.5989 11.0821,13.5989 C9.55157337,13.5989 8.3121,12.3589428 8.3121,10.8279 C8.3121,9.29759899 9.55183121,8.0569 11.0821,8.0569 C12.6131267,8.0569 13.8531,9.29735706 13.8531,10.8279 Z" id="Stroke-12" fill="#651EFF"></path>
                    <path d="M11.0826,13.5984 C11.5083153,13.5984 11.8536,13.9436847 11.8536,14.3694 C11.8536,14.7951153 11.5083153,15.1404 11.0826,15.1404 L8.5556,15.1404 L8.5556,17.1404 L11.0826,17.1404 C12.6128847,17.1404 13.8536,15.8996847 13.8536,14.3694 C13.8536,12.8391153 12.6128847,11.5984 11.0826,11.5984 L11.0826,13.5984 Z" id="Stroke-14" fill="#651EFF"></path>
                </g>
            </g>
        </g>
    </g>
</svg>