<svg width="96" height="30" viewBox="0 0 96 30" version="1.1" xmlns="http://www.w3.org/2000/svg" xmlns:xlink="http://www.w3.org/1999/xlink">
<title>hedvig_wordmark_black</title>
<desc>Created using Figma</desc>
<g id="Canvas" transform="translate(-127 -623)">
<clipPath id="clip-0" clip-rule="evenodd">
<path d="M 127 623L 223 623L 223 653L 127 653L 127 623Z" fill="#FFFFFF"/>
</clipPath>
<g id="hedvig_wordmark_black" clip-path="url(#clip-0)">
<path d="M 127 623L 223 623L 223 653L 127 653L 127 623Z" fill="#FFFFFF"/>
<g id="logo">
<g id="logo">
<g id="path0 fill">
<use xlink:href="#path0_fill" transform="translate(200.254 623)" fill="#393946"/>
</g>
<g id="Combined Shape">
<use xlink:href="#path1_fill" transform="translate(127 623.146)" fill="#393946"/>
</g>
<g id="path2 fill">
<use xlink:href="#path2_fill" transform="translate(175.822 623.146)" fill="#393946"/>
</g>
<g id="path3 fill">
<use xlink:href="#path3_fill" transform="translate(200.888 629.805)" fill="#393946"/>
</g>
<g id="path4 fill">
<use xlink:href="#path4_fill" transform="translate(163.324 629.439)" fill="#393946"/>
</g>
<g id="Combined Shape">
<use xlink:href="#path5_fill" transform="translate(207.274 629.439)" fill="#393946"/>
</g>
<g id="Combined Shape">
<use xlink:href="#path6_fill" transform="translate(181.241 629.805)" fill="#393946"/>
</g>
<g id="path11 fill">
<use xlink:href="#path7_fill" transform="translate(210.546 645.01)" fill="#393946"/>
</g>
<g id="Combined Shape">
<use xlink:href="#path8_fill" transform="translate(145.407 629.439)" fill="#393946"/>
</g>
</g>
</g>
</g>
</g>
<defs>
<path id="path0_fill" d="M 2.2342 4.53659C 3.4681 4.53659 4.4684 3.52104 4.4684 2.26829C 4.4684 1.01555 3.4681 0 2.2342 0C 1.0003 0 -3.01514e-06 1.01555 -3.01514e-06 2.26829C -3.01514e-06 3.52104 1.0003 4.53659 2.2342 4.53659Z"/>
<path id="path1_fill" d="M 3.21441 7.83288C 4.5148 6.86455 6.11954 6.29268 7.85586 6.29268C 12.1946 6.29268 15.6973 9.86346 15.6973 14.2683L 15.6973 21.9366L 12.4829 21.9366L 12.4829 14.2683C 12.4829 11.6781 10.4072 9.5561 7.84144 9.5561C 5.41317 9.5561 3.40273 11.465 3.21441 13.8949L 3.21441 21.922L 0 21.922L 0 3.23853e-07L 3.21441 3.23853e-07L 3.21441 7.83288Z"/>
<path id="path2_fill" d="M 3.2144 3.23853e-07L 1.86768e-06 3.23853e-07L 1.86768e-06 21.922L 3.2144 21.922L 3.2144 3.23853e-07Z"/>
<path id="path3_fill" d="M 3.2144 1.42212e-07L -1.96533e-06 1.42212e-07L -1.96533e-06 15.2049L 3.2144 15.2049L 3.2144 1.42212e-07Z"/>
<path id="path4_fill" d="M 7.8559 15.9512C 3.5316 15.9512 -1.14136e-06 12.3805 -1.14136e-06 7.97558C -1.14136e-06 3.57078 3.5316 1.5686e-07 7.8559 1.5686e-07C 12.1802 1.5686e-07 15.7117 3.57078 15.7117 7.97558C 15.7117 12.3805 12.1802 15.9512 7.8559 15.9512ZM 7.8559 3.26342C 5.3045 3.26342 3.2144 5.37078 3.2144 7.97558C 3.2144 10.5659 5.2901 12.6878 7.8559 12.6878C 10.4072 12.6878 12.4973 10.5805 12.4973 7.97558C 12.4973 5.37078 10.4072 3.26342 7.8559 3.26342Z"/>
<path id="path5_fill" d="M 12.4973 7.97558C 12.4973 5.38538 10.4216 3.26342 7.8558 3.26342C 5.3045 3.26342 3.2144 5.37078 3.2144 7.97558C 3.2144 10.5659 5.2901 12.6878 7.8558 12.6878C 10.4072 12.6878 12.4973 10.5805 12.4973 7.97558ZM 2.89307e-06 7.97558C 2.89307e-06 3.58538 3.5171 1.5686e-07 7.8558 1.5686e-07C 9.58914 1.5686e-07 11.1951 0.573695 12.4973 1.54484L 12.4973 0.36586L 15.7117 0.36586L 15.7117 7.96098C 15.7117 12.3659 12.1802 15.9512 7.8558 15.9512C 3.5315 15.9512 2.89307e-06 12.3805 2.89307e-06 7.97558Z"/>
<path id="path6_fill" d="M 8.43056 11.1941L 13.3334 1.42212e-07L 16.8649 1.42212e-07L 10.191 15.2049L 6.6739 15.2049L 1.67236e-06 1.42212e-07L 3.5172 1.42212e-07L 8.43056 11.1941Z"/>
<path id="path7_fill" d="M 4.58382 7.9756C 2.92621 7.9756 1.355 7.4487 -1.5625e-06 6.4683L 1.87391 3.8195C 2.66671 4.4048 3.60362 4.7122 4.56942 4.7122C 7.12083 4.7122 9.21094 2.6048 9.21094 -4.27246e-08L 12.4254 -4.27246e-08C 12.4397 4.3902 8.90823 7.9756 4.58382 7.9756Z"/>
<path id="path8_fill" d="M 14.0973 9.61468L 3.48952 9.61468C 4.14784 11.4101 5.85482 12.6878 7.8415 12.6878C 8.6487 12.6878 9.4559 12.4683 10.1622 12.0586L 11.7766 14.8829C 10.5802 15.5854 9.2252 15.9512 7.8559 15.9512C 3.5171 15.9512 -1.40381e-07 12.3805 -1.40381e-07 7.97558C -1.40381e-07 3.57078 3.5315 1.5686e-07 7.8559 1.5686e-07C 12.1802 1.5686e-07 15.7117 3.57078 15.7117 7.97558C 15.7117 8.53168 15.6541 9.08778 15.5387 9.61468L 14.0973 9.61468ZM 3.49001 6.33658L 12.1934 6.33658C 11.5351 4.54117 9.82812 3.26342 7.8415 3.26342C 5.84577 3.26342 4.14656 4.54721 3.49001 6.33658Z"/>
</defs>
</svg>
