<?xml version="1.0" encoding="UTF-8"?>
<svg width="40px" height="40px" viewBox="0 0 40 40" version="1.1" xmlns="http://www.w3.org/2000/svg" xmlns:xlink="http://www.w3.org/1999/xlink">
    <!-- Generator: Sketch 47.1 (45422) - http://www.bohemiancoding.com/sketch -->
    <title>icons/perils/min_lagenhet/eldsvada</title>
    <desc>Created with Sketch.</desc>
    <defs></defs>
    <g id="Symbols" stroke="none" stroke-width="1" fill="none" fill-rule="evenodd">
        <g id="icons/perils/min_lagenhet/eldsvada">
            <g id="Page-1">
                <g id="Group-3" fill="#F9FAFC">
                    <path d="M20.0001,40.0002 L20.0001,40.0002 C8.9541,40.0002 0.0001,31.0452 0.0001,20.0002 C0.0001,8.9542 8.9541,0.0002 20.0001,0.0002 C31.0451,0.0002 40.0001,8.9542 40.0001,20.0002 C40.0001,31.0452 31.0451,40.0002 20.0001,40.0002" id="Fill-1"></path>
                </g>
                <g id="Group-8" transform="translate(7.000000, 4.000000)" fill-rule="nonzero">
                    <path d="M19.1135325,7.44834108 L20.187107,8.80966662 C20.2296007,8.86354989 20.3058803,8.96213545 20.4111519,9.10112555 C20.5846693,9.33022054 20.7775143,9.59103671 20.9849042,9.87930701 C21.5769565,10.7022548 22.1689422,11.5828697 22.722834,12.4878812 C23.2921186,13.4180434 23.7893825,14.323089 24.1944441,15.1871604 C24.928879,16.7538459 25.3379,18.1298837 25.3379,19.2999 C25.3379,25.5805493 19.4843454,31.2089 12.9999,31.2089 C6.51545464,31.2089 0.6619,25.5805493 0.6619,19.2999 C0.6619,16.8406534 1.32299228,15.0716046 2.78570256,12.9658081 C3.02031568,12.6280464 4.64190436,10.4515425 5.12421057,9.73423094 C5.21831109,9.59427962 5.30973801,9.45541072 5.43509543,9.2643601 C5.96622171,8.54418467 6.44613256,7.61277756 6.86867813,6.52218439 C7.27038496,5.48537615 7.59795829,4.36620781 7.85509067,3.24592954 C7.94523264,2.85319763 8.01997386,2.48901499 8.08004112,2.16328015 C8.11554107,1.97076984 8.13794878,1.83607357 8.14804581,1.76901281 L8.32688513,0.581227565 L9.4625733,0.972417635 C13.4119143,2.33277607 15.8741667,6.52692813 17.3053635,11.9938771 L19.1135325,7.44834108 Z M18.9629767,13.2377871 C18.3072112,14.8849287 15.9243944,14.7323345 15.4988653,13.0058384 C14.3850475,8.47933491 12.5268966,4.88824915 9.88023611,3.35391088 C9.85616792,3.46470801 9.83089666,3.57791798 9.80440291,3.69334632 C9.52729026,4.90067496 9.17358811,6.10911352 8.73359521,7.24473838 C8.25181084,8.48822734 7.69363744,9.57152578 7.08081113,10.3990732 C6.98417367,10.549235 6.88538078,10.6992921 6.78392143,10.8501879 C6.26799704,11.6174982 4.63411722,13.8104993 4.42831399,14.1067848 C3.18124334,15.9021349 2.6619,17.2918708 2.6619,19.2999 C2.6619,24.4580435 7.60284981,29.2089 12.9999,29.2089 C18.3969502,29.2089 23.3379,24.4580435 23.3379,19.2999 C23.3379,18.4823691 23.0044536,17.3605812 22.3835489,16.0360765 C22.0126351,15.2448486 21.5501145,14.4030376 21.016966,13.5319188 C20.5852573,12.8265438 20.1272425,12.1339069 19.6645548,11.4740978 L18.9629767,13.2377871 Z" id="Stroke-4" fill="#FF8A80"></path>
                    <path d="M12.8048119,16.5250455 L9.58272008,20.176907 C8.66388767,21.16708 8.1567,22.471058 8.1567,23.9157 C8.1567,26.8382697 10.356237,29.2087 12.9957,29.2087 C15.6314592,29.2087 17.8415787,26.839454 17.8797,23.9157 C17.8797,22.5112265 17.3570549,21.1936653 16.4781144,20.2033277 L12.8048119,16.5250455 Z M12.9957,31.2087 C9.21684918,31.2087 6.1567,27.9107922 6.1567,23.9157 C6.1567,21.9686442 6.85311422,20.1781653 8.09981277,18.8351343 L12.714548,13.6043143 L13.4672856,14.3580723 L17.9327872,18.831974 C19.170651,20.2232121 19.8797,22.0106877 19.8796154,23.9287084 C19.8276281,27.9247956 16.7642818,31.2087 12.9957,31.2087 Z" id="Stroke-6" fill="#AA0045"></path>
                </g>
            </g>
        </g>
    </g>
</svg>