<?xml version="1.0" encoding="UTF-8"?>
<svg width="40px" height="40px" viewBox="0 0 40 40" version="1.1" xmlns="http://www.w3.org/2000/svg" xmlns:xlink="http://www.w3.org/1999/xlink">
    <!-- Generator: Sketch 47.1 (45422) - http://www.bohemiancoding.com/sketch -->
    <title>icons/perils/min_lagenhet/vitvaror</title>
    <desc>Created with Sketch.</desc>
    <defs></defs>
    <g id="Symbols" stroke="none" stroke-width="1" fill="none" fill-rule="evenodd">
        <g id="icons/perils/min_lagenhet/vitvaror">
            <g id="Page-1">
                <g id="Group-3" fill="#F9FAFC">
                    <path d="M20,40.0002 L20,40.0002 C8.954,40.0002 0,31.0462 0,20.0002 C0,8.9542 8.954,0.0002 20,0.0002 C31.046,0.0002 40,8.9542 40,20.0002 C40,31.0462 31.046,40.0002 20,40.0002" id="Fill-1"></path>
                </g>
                <path d="M13.4209,31.7463 L13.4209,30.4183 C13.4209,29.8660153 12.9731847,29.4183 12.4209,29.4183 C11.8686153,29.4183 11.4209,29.8660153 11.4209,30.4183 L11.4209,31.7463 C11.4209,32.2985847 11.8686153,32.7463 12.4209,32.7463 C12.9731847,32.7463 13.4209,32.2985847 13.4209,31.7463 Z" id="Stroke-4" fill="#AA0045" fill-rule="nonzero"></path>
                <path d="M28.5791,31.7463 L28.5791,30.4183 C28.5791,29.8660153 28.1313847,29.4183 27.5791,29.4183 C27.0268153,29.4183 26.5791,29.8660153 26.5791,30.4183 L26.5791,31.7463 C26.5791,32.2985847 27.0268153,32.7463 27.5791,32.7463 C28.1313847,32.7463 28.5791,32.2985847 28.5791,31.7463 Z" id="Stroke-5" fill="#AA0045" fill-rule="nonzero"></path>
                <path d="M8.376,30.427 L8.376,8.509 L31.623,8.509 L31.623,30.427 L8.376,30.427 Z M10.376,28.427 L29.623,28.427 L29.623,10.509 L10.376,10.509 L10.376,28.427 Z" id="Stroke-6" fill="#FF8A80" fill-rule="nonzero"></path>
                <g id="Group-17" transform="translate(8.000000, 8.000000)">
                    <path d="M8.0162,6.8205 C8.0162,6.0875 7.4222,5.4925 6.6882,5.4925 C5.9552,5.4925 5.3602,6.0875 5.3602,6.8205 C5.3602,7.5535 5.9552,8.1485 6.6882,8.1485 C7.4222,8.1485 8.0162,7.5535 8.0162,6.8205" id="Fill-7" fill="#AA0045"></path>
                    <path d="M13.3277,6.8205 C13.3277,6.0875 12.7337,5.4925 11.9997,5.4925 C11.2667,5.4925 10.6717,6.0875 10.6717,6.8205 C10.6717,7.5535 11.2667,8.1485 11.9997,8.1485 C12.7337,8.1485 13.3277,7.5535 13.3277,6.8205" id="Fill-9" fill="#AA0045"></path>
                    <path d="M18.6397,6.8205 C18.6397,6.0875 18.0447,5.4925 17.3117,5.4925 C16.5777,5.4925 15.9837,6.0875 15.9837,6.8205 C15.9837,7.5535 16.5777,8.1485 17.3117,8.1485 C18.0447,8.1485 18.6397,7.5535 18.6397,6.8205" id="Fill-11" fill="#AA0045"></path>
                    <polygon id="Stroke-13" fill="#AA0045" fill-rule="nonzero" points="2.3765 2.509 21.6235 2.509 21.6235 0.509 0.3765 0.509 0.3765 22.427 2.3765 22.427"></polygon>
                    <path d="M18.7385115,14.0913892 C17.3671769,12.7746169 14.8071698,11.9847 11.9999,11.9847 C9.19202961,11.9847 6.63211023,12.7748972 5.26095692,14.0927077 L6.64684308,15.5346923 C7.5948349,14.6235808 9.66455024,13.9847 11.9999,13.9847 C14.334915,13.9847 16.4049904,14.6234434 17.3532885,15.5340108 L18.7385115,14.0913892 Z" id="Stroke-15" fill="#FF8A80" fill-rule="nonzero"></path>
                </g>
            </g>
        </g>
    </g>
</svg>