<?xml version="1.0" encoding="UTF-8"?>
<svg width="40px" height="40px" viewBox="0 0 40 40" version="1.1" xmlns="http://www.w3.org/2000/svg" xmlns:xlink="http://www.w3.org/1999/xlink">
    <!-- Generator: Sketch 47.1 (45422) - http://www.bohemiancoding.com/sketch -->
    <title>icons/chat/redo_recording</title>
    <desc>Created with Sketch.</desc>
    <defs></defs>
    <g id="Symbols" stroke="none" stroke-width="1" fill="none" fill-rule="evenodd">
        <g id="icons/chat/redo_recording">
            <circle id="Oval-Copy" fill="#E9ECEF" cx="20" cy="20" r="20"></circle>
            <g id="Page-1" transform="translate(11.000000, 9.000000)" fill-rule="nonzero" fill="#414150">
                <path d="M0.707672598,8.29656583 C0.242973316,9.39463303 0.000599999999,10.5814363 0.000599999999,11.8003 C0.000599999999,16.7709108 4.02964128,20.8003 9.0006,20.8003 C13.9708847,20.8003 18.0006,16.7705847 18.0006,11.8003 C18.0006,6.83001525 13.9708847,2.8003 9.0006,2.8003 L8.0006,2.8003 L8.0006,4.8003 L9.0006,4.8003 C12.8663153,4.8003 16.0006,7.93458475 16.0006,11.8003 C16.0006,15.6660153 12.8663153,18.8003 9.0006,18.8003 C5.13424944,18.8003 2.0006,15.66638 2.0006,11.8003 C2.0006,10.8501037 2.1888574,9.92828402 2.5495274,9.07603417 L2.93926157,8.15510677 L1.09740677,7.37563843 L0.707672598,8.29656583 Z" id="Stroke-1"></path>
                <polygon id="Stroke-3" points="11.7074135 1.41362662 10.2929266 -0.000313535949 6.29312312 4.00103668 10.2932 8.00111356 11.7074136 6.5869 9.12127688 4.00076332"></polygon>
            </g>
        </g>
    </g>
</svg>