<?xml version="1.0" encoding="UTF-8"?>
<svg width="40px" height="40px" viewBox="0 0 40 40" version="1.1" xmlns="http://www.w3.org/2000/svg" xmlns:xlink="http://www.w3.org/1999/xlink">
    <!-- Generator: Sketch 47.1 (45422) - http://www.bohemiancoding.com/sketch -->
    <title>icons/chat/to_dashboard</title>
    <desc>Created with Sketch.</desc>
    <defs></defs>
    <g id="Symbols" stroke="none" stroke-width="1" fill="none" fill-rule="evenodd">
        <g id="icons/chat/to_dashboard">
            <g id="Page-1">
                <polygon id="Fill-1" points="0 40 40 40 40 0 0 0"></polygon>
            </g>
            <g id="Page-1" transform="translate(7.000000, 7.000000)" fill-rule="nonzero" fill="#414150">
                <path d="M17.5616,24.1655 L17.5616,15.9715 C17.5616,13.4991126 15.5374976,11.4785 13.0616,11.4785 C10.5857024,11.4785 8.5616,13.4991126 8.5616,15.9715 L8.5616,24.1655 L2.9796,24.1655 L2.9796,13.3945 L1.9796,13.3945 L1.9796,25.1655 L9.5616,25.1655 L9.5616,15.9715 C9.5616,14.051784 11.1376012,12.4785 13.0616,12.4785 C14.9855988,12.4785 16.5616,14.051784 16.5616,15.9715 L16.5616,25.1655 L24.1446,25.1655 L24.1446,13.3945 L23.1446,13.3945 L23.1446,24.1655 L17.5616,24.1655 Z" id="Stroke-1"></path>
                <polygon id="Stroke-3" points="13.0622861 1.4130367 25.4170252 13.7483317 26.1235748 13.0406683 13.0623139 -3.66967904e-05 3.90726212e-05 13.0406544 0.706560927 13.7483456"></polygon>
            </g>
        </g>
    </g>
</svg>