<?xml version="1.0" encoding="UTF-8"?>
<svg width="72px" height="72px" viewBox="0 0 72 72" version="1.1" xmlns="http://www.w3.org/2000/svg" xmlns:xlink="http://www.w3.org/1999/xlink">
    <!-- Generator: Sketch 47.1 (45422) - http://www.bohemiancoding.com/sketch -->
    <title>icons/categories/du_och_din_familj</title>
    <desc>Created with Sketch.</desc>
    <defs></defs>
    <g id="Symbols" stroke="none" stroke-width="1" fill="none" fill-rule="evenodd">
        <g id="icons/categories/du_och_din_familj">
            <g id="Page-1" transform="translate(7.000000, 13.000000)">
                <polygon id="Fill-1" fill="#651EFF" points="43.317 25.2865 46.145 28.1145 58.829 15.4315 56 12.6035"></polygon>
                <g id="Group-14">
                    <path d="M37.914,10.2676 C35.846,10.2676 34.164,11.9506 34.164,14.0176 C34.164,16.0846 35.846,17.7676 37.914,17.7676 C39.982,17.7676 41.664,16.0846 41.664,14.0176 C41.664,11.9506 39.982,10.2676 37.914,10.2676 M37.914,21.7676 C33.641,21.7676 30.164,18.2906 30.164,14.0176 C30.164,9.7446 33.641,6.2676 37.914,6.2676 C42.187,6.2676 45.664,9.7446 45.664,14.0176 C45.664,18.2906 42.187,21.7676 37.914,21.7676" id="Fill-2" fill="#0F007A"></path>
                    <path d="M48.414,42.5 L44.414,42.5 L44.414,31.768 C44.414,28.184 41.498,25.268 37.914,25.268 C34.33,25.268 31.414,28.184 31.414,31.768 L31.414,42.268 L27.414,42.268 L27.414,31.768 C27.414,25.978 32.124,21.268 37.914,21.268 C43.704,21.268 48.414,25.978 48.414,31.768 L48.414,42.5 Z" id="Fill-4" fill="#0F007A"></path>
                    <polygon id="Fill-6" fill="#0F007A" points="12.685 21.8496 0 9.1636 2.828 6.3356 15.513 19.0216"></polygon>
                    <path d="M20.914,4 C18.846,4 17.164,5.683 17.164,7.75 C17.164,9.817 18.846,11.5 20.914,11.5 C22.982,11.5 24.664,9.817 24.664,7.75 C24.664,5.683 22.982,4 20.914,4 M20.914,15.5 C16.641,15.5 13.164,12.023 13.164,7.75 C13.164,3.477 16.641,0 20.914,0 C25.187,0 28.664,3.477 28.664,7.75 C28.664,12.023 25.187,15.5 20.914,15.5" id="Fill-8" fill="#651EFF"></path>
                    <path d="M31.414,46 L27.414,46 L27.414,25.5 C27.414,21.916 24.498,19 20.914,19 C17.33,19 14.414,21.916 14.414,25.5 L14.414,29.25 L10.414,29.25 L10.414,25.5 C10.414,19.71 15.124,15 20.914,15 C26.704,15 31.414,19.71 31.414,25.5 L31.414,46 Z" id="Fill-10" fill="#651EFF"></path>
                    <path d="M12.434,31.25 C10.366,31.25 8.684,32.933 8.684,35 C8.684,37.067 10.366,38.75 12.434,38.75 C14.502,38.75 16.184,37.067 16.184,35 C16.184,32.933 14.502,31.25 12.434,31.25 M12.434,42.75 C8.161,42.75 4.684,39.273 4.684,35 C4.684,30.727 8.161,27.25 12.434,27.25 C16.707,27.25 20.184,30.727 20.184,35 C20.184,39.273 16.707,42.75 12.434,42.75" id="Fill-12" fill="#0F007A"></path>
                </g>
            </g>
        </g>
    </g>
</svg>