<?xml version="1.0" encoding="UTF-8"?>
<svg width="72px" height="72px" viewBox="0 0 72 72" version="1.1" xmlns="http://www.w3.org/2000/svg" xmlns:xlink="http://www.w3.org/1999/xlink">
    <!-- Generator: Sketch 47.1 (45422) - http://www.bohemiancoding.com/sketch -->
    <title>icons/categories/prylar</title>
    <desc>Created with Sketch.</desc>
    <defs></defs>
    <g id="Symbols" stroke="none" stroke-width="1" fill="none" fill-rule="evenodd">
        <g id="icons/categories/prylar">
            <g id="Page-1" transform="translate(0.000000, 10.000000)">
                <path d="M44.5224,51.9102 C43.0864,51.0982 42.1954,49.5722 42.1954,47.9272 L42.1954,31.3402 L46.1954,31.3402 L46.1954,47.9272 C46.1954,48.1732 46.3484,48.3472 46.4914,48.4282 L44.5224,51.9102 Z" id="Fill-1" fill="#FFD9D9"></path>
                <path d="M67.4258,52.5 L45.5068,52.5 L45.5068,48.5 L67.4258,48.5 C67.7418,48.5 67.9998,48.243 67.9998,47.927 L67.9998,26.246 L71.9998,26.246 L71.9998,47.927 C71.9998,50.448 69.9478,52.5 67.4258,52.5" id="Fill-3" fill="#FF8A80"></path>
                <polygon id="Fill-5" fill="#AA0045" points="53.617 10.962 60.578 10.962 60.578 6.962 53.617 6.962"></polygon>
                <path d="M60.0976,41.4766 C60.0976,43.1336 58.7546,44.4766 57.0976,44.4766 C55.4406,44.4766 54.0976,43.1336 54.0976,41.4766 C54.0976,39.8196 55.4406,38.4766 57.0976,38.4766 C58.7546,38.4766 60.0976,39.8196 60.0976,41.4766" id="Fill-7" fill="#AA0045"></path>
                <path d="M46.1953,31.3398 L42.1953,31.3398 L42.1953,4.5738 C42.1953,2.0518 44.2473,-0.0002 46.7693,-0.0002 L67.4253,-0.0002 C69.9483,-0.0002 72.0003,2.0518 72.0003,4.5738 L72.0003,26.2458 L68.0003,26.2458 L68.0003,4.5738 C68.0003,4.2578 67.7423,3.9998 67.4253,3.9998 L46.7693,3.9998 C46.4533,3.9998 46.1953,4.2578 46.1953,4.5738 L46.1953,31.3398 Z" id="Fill-8" fill="#AA0045"></path>
                <path d="M11.8457,32.8096 C7.5197,32.8096 3.9997,36.3296 3.9997,40.6556 C3.9997,44.9806 7.5197,48.4996 11.8457,48.4996 C16.1717,48.4996 19.6917,44.9806 19.6917,40.6556 C19.6917,36.3296 16.1717,32.8096 11.8457,32.8096 M11.8457,52.4996 C5.3137,52.4996 -0.0003,47.1866 -0.0003,40.6556 C-0.0003,34.1226 5.3137,28.8096 11.8457,28.8096 C18.3777,28.8096 23.6917,34.1226 23.6917,40.6556 C23.6917,47.1866 18.3777,52.4996 11.8457,52.4996" id="Fill-9" fill="#AA0045"></path>
                <path d="M15.4355,38.6045 L22.3795,26.8675 L33.9185,26.8675 L26.9755,38.6235 L15.4355,38.6045 Z M40.9265,22.8675 L20.0985,22.8675 L10.8775,38.4515 L13.2425,42.6005 L29.2565,42.6265 L40.9265,22.8675 Z" id="Fill-10" fill="#FF8A80"></path>
                <polygon id="Fill-11" fill="#AA0045" points="20.0986 22.8672 40.9266 22.8672 29.2566 42.6272 26.9756 38.6232 33.9186 26.8672 22.3796 26.8672"></polygon>
                <path d="M45.5078,32.8096 C41.1818,32.8096 37.6618,36.3296 37.6618,40.6556 C37.6618,44.9806 41.1818,48.4996 45.5078,48.4996 C49.8338,48.4996 53.3538,44.9806 53.3538,40.6556 C53.3538,36.3296 49.8338,32.8096 45.5078,32.8096 M45.5078,52.4996 C38.9758,52.4996 33.6618,47.1866 33.6618,40.6556 C33.6618,34.1226 38.9758,28.8096 45.5078,28.8096 C52.0398,28.8096 57.3538,34.1226 57.3538,40.6556 C57.3538,47.1866 52.0398,52.4996 45.5078,52.4996" id="Fill-12" fill="#FF8A80"></path>
                <polygon id="Fill-13" fill="#FF8A80" points="43.6367 41.3145 34.1527 16.1655 46.1957 16.1655 46.1957 20.1655 39.9357 20.1655 47.3787 39.9025"></polygon>
                <polygon id="Fill-14" fill="#FF8A80" points="16.076 20.165 24.969 20.165 24.969 16.165 16.076 16.165"></polygon>
            </g>
        </g>
    </g>
</svg>