<?xml version="1.0" encoding="UTF-8"?>
<svg width="56px" height="56px" viewBox="0 0 56 56" version="1.1" xmlns="http://www.w3.org/2000/svg" xmlns:xlink="http://www.w3.org/1999/xlink">
    <!-- Generator: Sketch 47.1 (45422) - http://www.bohemiancoding.com/sketch -->
    <title>buttons/fab/open_fab</title>
    <desc>Created with Sketch.</desc>
    <defs>
        <linearGradient x1="50%" y1="0%" x2="50%" y2="99.0214445%" id="linearGradient-1">
            <stop stop-color="#000000" stop-opacity="0" offset="0%"></stop>
            <stop stop-color="#000000" stop-opacity="0.02" offset="80%"></stop>
            <stop stop-color="#000000" stop-opacity="0.04" offset="100%"></stop>
        </linearGradient>
        <linearGradient x1="50%" y1="0%" x2="50%" y2="100%" id="linearGradient-2">
            <stop stop-color="#FFFFFF" stop-opacity="0.12" offset="0%"></stop>
            <stop stop-color="#FFFFFF" stop-opacity="0.06" offset="20%"></stop>
            <stop stop-color="#FFFFFF" stop-opacity="0" offset="100%"></stop>
        </linearGradient>
        <path d="M28,0 L28,0 L28,-3.55271368e-15 C43.463973,-6.39339943e-15 56,12.536027 56,28 L56,54 L56,54 C56,55.1045695 55.1045695,56 54,56 L28,56 L28,56 C12.536027,56 -1.65892318e-15,43.463973 -3.55271368e-15,28 L0,28 L-3.55271368e-15,28 C-5.44650418e-15,12.536027 12.536027,-7.12027924e-16 28,-3.55271368e-15 Z" id="path-3"></path>
        <filter x="-32.1%" y="-21.4%" width="164.3%" height="164.3%" filterUnits="objectBoundingBox" id="filter-4">
            <feOffset dx="0" dy="6" in="SourceAlpha" result="shadowOffsetOuter1"></feOffset>
            <feGaussianBlur stdDeviation="3" in="shadowOffsetOuter1" result="shadowBlurOuter1"></feGaussianBlur>
            <feComposite in="shadowBlurOuter1" in2="SourceAlpha" operator="out" result="shadowBlurOuter1"></feComposite>
            <feColorMatrix values="0 0 0 0 0   0 0 0 0 0   0 0 0 0 0  0 0 0 0.12 0" type="matrix" in="shadowBlurOuter1" result="shadowMatrixOuter1"></feColorMatrix>
            <feOffset dx="0" dy="0" in="SourceAlpha" result="shadowOffsetOuter2"></feOffset>
            <feGaussianBlur stdDeviation="3" in="shadowOffsetOuter2" result="shadowBlurOuter2"></feGaussianBlur>
            <feComposite in="shadowBlurOuter2" in2="SourceAlpha" operator="out" result="shadowBlurOuter2"></feComposite>
            <feColorMatrix values="0 0 0 0 0   0 0 0 0 0   0 0 0 0 0  0 0 0 0.12 0" type="matrix" in="shadowBlurOuter2" result="shadowMatrixOuter2"></feColorMatrix>
            <feMerge>
                <feMergeNode in="shadowMatrixOuter1"></feMergeNode>
                <feMergeNode in="shadowMatrixOuter2"></feMergeNode>
            </feMerge>
        </filter>
    </defs>
    <g id="Symbols" stroke="none" stroke-width="1" fill="none" fill-rule="evenodd">
        <g id="buttons/fab/open_fab">
            <g id="fab">
                <g id="fab-bg">
                    <use fill="black" fill-opacity="1" filter="url(#filter-4)" xlink:href="#path-3"></use>
                    <use fill="#651EFF" fill-rule="evenodd" xlink:href="#path-3"></use>
                    <path stroke="url(#linearGradient-1)" stroke-width="0.5" d="M28,0.25 C12.6740982,0.25 0.25,12.6740982 0.25,28 C0.25,43.3259018 12.6740982,55.75 28,55.75 L54,55.75 C54.9664983,55.75 55.75,54.9664983 55.75,54 L55.75,28 C55.75,12.6740982 43.3259018,0.25 28,0.25 Z"></path>
                    <path stroke="url(#linearGradient-2)" stroke-width="0.5" d="M28,0.25 C12.6740982,0.25 0.25,12.6740982 0.25,28 C0.25,43.3259018 12.6740982,55.75 28,55.75 L54,55.75 C54.9664983,55.75 55.75,54.9664983 55.75,54 L55.75,28 C55.75,12.6740982 43.3259018,0.25 28,0.25 Z"></path>
                </g>
                <g id="identity/hedvig_symbol/hedvig_symbol_white" transform="translate(20.000000, 15.000000)" fill="#FFFFFF">
                    <g id="Group-2">
                        <path d="M3.725,8.92928879 C5.22983946,7.82556613 7.08542132,7.1731 9.0906,7.1731 C14.1026,7.1731 18.1806,11.2511 18.1806,16.2631 L14.456,16.2631 L18.181,16.263 L18.181,24.998 L14.456,24.998 L14.456,16.2631 L14.4556,16.2631 C14.4556,13.3051 12.0486,10.8971 9.0906,10.8971 C6.15364409,10.8971 3.76049419,13.2693552 3.725,16.1970824 L3.725,25 L1.62630326e-19,25 L1.62630326e-19,16.2631 L-0.000400000001,16.2631 C-0.000400000001,16.2344202 -0.000266470371,16.205771 -8.08834873e-12,16.1771529 L1.62630326e-19,0 L3.725,0 L3.725,8.92928879 Z" id="Combined-Shape"></path>
                    </g>
                </g>
            </g>
        </g>
    </g>
</svg>