<?xml version="1.0" encoding="UTF-8"?>
<svg width="24px" height="24px" viewBox="0 0 24 24" version="1.1" xmlns="http://www.w3.org/2000/svg" xmlns:xlink="http://www.w3.org/1999/xlink">
    <!-- Generator: Sketch 47.1 (45422) - http://www.bohemiancoding.com/sketch -->
    <title>icons/list_items/edit_list_item</title>
    <desc>Created with Sketch.</desc>
    <defs></defs>
    <g id="Symbols" stroke="none" stroke-width="1" fill="none" fill-rule="evenodd">
        <g id="icons/list_items/edit_list_item" fill-rule="nonzero" fill="#9B9BAA">
            <path d="M3,21 L3,4 L9,4 L9,3 L3,3 L3,3 C2.44771525,3 2,3.44771525 2,4 L2,21 L2,21 C2,21.5522847 2.44771525,22 3,22 L20,22 L20,22 C20.5522847,22 21,21.5522847 21,21 L21,14 L20,14 L20,21 L3,21 Z" id="Path-4"></path>
            <path d="M10.4369386,15.1809859 L15.4369386,15.1809859 L15.4369386,16.1809859 L10.4369386,16.1809859 L10.4369386,15.1809859 Z M14.4369386,15.9449179 L14.4369386,3.18098588 L11.4369386,3.18098588 L11.4369386,15.9449179 L12.9369386,18.9449179 L14.4369386,15.9449179 Z M10.4369386,2.18098588 L15.4369386,2.18098588 L15.4369386,16.1809859 L13.8313658,19.3921315 L13.8313658,19.3921315 C13.5843765,19.88611 12.9837035,20.0863343 12.489725,19.8393451 C12.2961976,19.7425814 12.1392751,19.5856589 12.0425114,19.3921315 L10.4369386,16.1809859 L10.4369386,2.18098588 Z" id="Page-1" transform="translate(12.936939, 11.063061) rotate(45.000000) translate(-12.936939, -11.063061) "></path>
        </g>
    </g>
</svg>