<?xml version="1.0" encoding="UTF-8"?>
<svg width="24px" height="24px" viewBox="0 0 24 24" version="1.1" xmlns="http://www.w3.org/2000/svg" xmlns:xlink="http://www.w3.org/1999/xlink">
    <!-- Generator: Sketch 47 (45396) - http://www.bohemiancoding.com/sketch -->
    <title>Web/Social icons/Facebook</title>
    <desc>Created with Sketch.</desc>
    <defs></defs>
    <g id="Symbols" stroke="none" stroke-width="1" fill="none" fill-rule="evenodd">
        <g id="Web/Social-icons/Facebook" fill="#F9FAFC">
            <path d="M20.896191,2 L3.103809,2 C2.49412876,2 2,2.49412876 2,3.103809 L2,20.896191 C2,21.5057963 2.49412876,22.0000749 3.103809,22.0000749 L12.682668,22.0000749 L12.682668,14.2549776 L10.07624,14.2549776 L10.07624,11.2365508 L12.682668,11.2365508 L12.682668,9.01057349 C12.682668,6.42737566 14.260373,5.02074981 16.5648085,5.02074981 C17.6686924,5.02074981 18.6173837,5.10287979 18.893823,5.13959849 L18.893823,7.83924704 L17.2955855,7.8399964 C16.0423539,7.8399964 15.7996358,8.43551372 15.7996358,9.30941872 L15.7996358,11.2365508 L18.7886127,11.2365508 L18.3994695,14.2549776 L15.7996358,14.2549776 L15.7996358,22.0000749 L20.896191,22.0000749 C21.5057963,22.0000749 22,21.5057963 22,20.896191 L22,3.103809 C22,2.49412876 21.5057963,2 20.896191,2" id="Fill-1"></path>
        </g>
    </g>
</svg>