<?xml version="1.0" encoding="UTF-8"?>
<svg width="24px" height="24px" viewBox="0 0 24 24" version="1.1" xmlns="http://www.w3.org/2000/svg" xmlns:xlink="http://www.w3.org/1999/xlink">
    <!-- Generator: Sketch 47 (45396) - http://www.bohemiancoding.com/sketch -->
    <title>Web/Social icons/Instagram</title>
    <desc>Created with Sketch.</desc>
    <defs></defs>
    <g id="Symbols" stroke="none" stroke-width="1" fill="none" fill-rule="evenodd">
        <g id="Web/Social-icons/Instagram" fill="#F9FAFC">
            <path d="M11.9968651,2.04395604 C9.28186508,2.04395604 8.94142857,2.05533752 7.87515873,2.10345369 C6.81111111,2.15145212 6.08440476,2.31860283 5.44853175,2.56302983 C4.79115079,2.81565934 4.23365079,3.15372841 3.67785714,3.7033752 C3.12210317,4.25306122 2.78027778,4.80443485 2.52484127,5.45459184 C2.27769841,6.08347724 2.10869048,6.8021978 2.06015873,7.85455259 C2.01150794,8.90910518 2,9.24580063 2,11.9309655 C2,14.6160911 2.01150794,14.9527865 2.06015873,16.0073391 C2.10869048,17.0596939 2.27769841,17.7784144 2.52484127,18.4072998 C2.78027778,19.0574568 3.12210317,19.6088305 3.67785714,20.1585165 C4.23365079,20.7081633 4.79115079,21.0462323 5.44853175,21.2989011 C6.08440476,21.5432889 6.81111111,21.7104396 7.87515873,21.758438 C8.94142857,21.8065542 9.28186508,21.8179356 11.9968651,21.8179356 C14.7118254,21.8179356 15.0522619,21.8065542 16.1185317,21.758438 C17.1825794,21.7104396 17.9092857,21.5432889 18.5451587,21.2989011 C19.2025397,21.0462323 19.7600397,20.7081633 20.3158333,20.1585165 C20.8715873,19.6088305 21.2134127,19.0574568 21.4688889,18.4072998 C21.7159921,17.7784144 21.885,17.0596939 21.9335317,16.0073391 C21.9821825,14.9527865 21.9936905,14.6160911 21.9936905,11.9309655 C21.9936905,9.24580063 21.9821825,8.90910518 21.9335317,7.85455259 C21.885,6.8021978 21.7159921,6.08347724 21.4688889,5.45459184 C21.2134127,4.80443485 20.8715873,4.25306122 20.3158333,3.7033752 C19.7600397,3.15372841 19.2025397,2.81565934 18.5451587,2.56302983 C17.9092857,2.31860283 17.1825794,2.15145212 16.1185317,2.10345369 C15.0522619,2.05533752 14.7118254,2.04395604 11.9968651,2.04395604 Z M11.9968651,3.82539246 C14.6661111,3.82539246 14.9823016,3.83547881 16.0364286,3.88304553 C17.0111111,3.92700157 17.5404365,4.08806907 17.8926984,4.22346939 C18.3593254,4.40282575 18.6923413,4.61707221 19.0421429,4.96306907 C19.3919841,5.30902669 19.6086111,5.63838305 19.7899603,6.09988226 C19.9268651,6.44827316 20.0897222,6.97178179 20.1341667,7.93575353 C20.1822619,8.9782967 20.1924603,9.29101256 20.1924603,11.9309655 C20.1924603,14.5708791 20.1822619,14.883595 20.1341667,15.9261381 C20.0897222,16.8901099 19.9268651,17.4136185 19.7899603,17.7620094 C19.6086111,18.2235086 19.3919841,18.552865 19.0421429,18.8988226 C18.6923413,19.2448195 18.3593254,19.4590659 17.8926984,19.6384223 C17.5404365,19.7738226 17.0111111,19.9348901 16.0364286,19.9788462 C14.9824603,20.0264129 14.6663095,20.0364992 11.9968651,20.0364992 C9.32738095,20.0364992 9.01126984,20.0264129 7.9572619,19.9788462 C6.98257937,19.9348901 6.45325397,19.7738226 6.10099206,19.6384223 C5.63436508,19.4590659 5.30134921,19.2448195 4.95154762,18.8988226 C4.60174603,18.552865 4.38507937,18.2235086 4.20373016,17.7620094 C4.0668254,17.4136185 3.90396825,16.8901099 3.85952381,15.9261381 C3.81142857,14.883595 3.80123016,14.5708791 3.80123016,11.9309655 C3.80123016,9.29101256 3.81142857,8.9782967 3.85952381,7.93575353 C3.90396825,6.97178179 4.0668254,6.44827316 4.20373016,6.09988226 C4.38507937,5.63838305 4.60170635,5.30902669 4.95154762,4.96306907 C5.30134921,4.61707221 5.63436508,4.40282575 6.10099206,4.22346939 C6.45325397,4.08806907 6.98257937,3.92700157 7.9572619,3.88304553 C9.01138889,3.83547881 9.32757937,3.82539246 11.9968651,3.82539246 L11.9968651,3.82539246 Z" id="Fill-1"></path>
            <path d="M12.1335317,15.3617739 C10.2931349,15.3617739 8.80123016,13.8862637 8.80123016,12.0661303 C8.80123016,10.2459576 10.2931349,8.77044741 12.1335317,8.77044741 C13.9738889,8.77044741 15.4657937,10.2459576 15.4657937,12.0661303 C15.4657937,13.8862637 13.9738889,15.3617739 12.1335317,15.3617739 Z M12.1335317,6.98901099 C9.29833333,6.98901099 7,9.26208791 7,12.0661303 C7,14.8701334 9.29833333,17.1432104 12.1335317,17.1432104 C14.9686905,17.1432104 17.2670238,14.8701334 17.2670238,12.0661303 C17.2670238,9.26208791 14.9686905,6.98901099 12.1335317,6.98901099 L12.1335317,6.98901099 Z" id="Fill-4"></path>
            <path d="M18.399246,7.18645997 C18.399246,7.841719 17.8621429,8.37288069 17.1996032,8.37288069 C16.5371032,8.37288069 16,7.841719 16,7.18645997 C16,6.53120094 16.5371032,6 17.1996032,6 C17.8621429,6 18.399246,6.53120094 18.399246,7.18645997" id="Fill-5"></path>
        </g>
    </g>
</svg>