<svg width="440" height="440" viewBox="0 0 440 440" version="1.1" xmlns="http://www.w3.org/2000/svg" xmlns:xlink="http://www.w3.org/1999/xlink">
<title>Group</title>
<desc>Created using Figma</desc>
<g id="Canvas" transform="translate(-603 -307)">
<g id="Group">
<g id="Web/Social icons/Instagram">
<g id="Fill 1">
<use xlink:href="#path0_fill" transform="translate(639.667 344.472)" fill="#0F007A"/>
</g>
<g id="Fill 4">
<use xlink:href="#path1_fill" transform="translate(731.333 435.132)" fill="#0F007A"/>
</g>
<g id="Fill 5">
<use xlink:href="#path2_fill" transform="translate(896.333 417)" fill="#0F007A"/>
</g>
</g>
</g>
</g>
<defs>
<path id="path0_fill" fill-rule="evenodd" d="M 183.276 0C 133.501 0 127.26 0.20866 107.711 1.09079C 88.2037 1.97076 74.8808 5.03519 63.2231 9.51635C 51.1711 14.1479 40.9503 20.3458 30.7607 30.4227C 20.5719 40.5003 14.3051 50.6088 9.62209 62.5283C 5.09114 74.0579 1.99266 87.2344 1.10291 106.528C 0.210979 125.861 0 132.034 0 181.262C 0 230.489 0.210979 236.662 1.10291 255.995C 1.99266 275.289 5.09114 288.465 9.62209 299.995C 14.3051 311.914 20.5719 322.023 30.7607 332.1C 40.9503 342.177 51.1711 348.375 63.2231 353.007C 74.8808 357.488 88.2037 360.552 107.711 361.432C 127.26 362.314 133.501 362.523 183.276 362.523C 233.05 362.523 239.291 362.314 258.84 361.432C 278.347 360.552 291.67 357.488 303.328 353.007C 315.38 348.375 325.601 342.177 335.79 332.1C 345.979 322.023 352.246 311.914 356.93 299.995C 361.46 288.465 364.558 275.289 365.448 255.995C 366.34 236.662 366.551 230.489 366.551 181.262C 366.551 132.034 366.34 125.861 365.448 106.528C 364.558 87.2344 361.46 74.0579 356.93 62.5283C 352.246 50.6088 345.979 40.5003 335.79 30.4227C 325.601 20.3458 315.38 14.1479 303.328 9.51635C 291.67 5.03519 278.347 1.97076 258.84 1.09079C 239.291 0.20866 233.05 0 183.276 0ZM 183.273 32.66C 232.209 32.66 238.006 32.8449 257.332 33.7169C 275.201 34.5228 284.905 37.4757 291.363 39.958C 299.918 43.2462 306.023 47.1741 312.436 53.5174C 318.85 59.8599 322.822 65.8981 326.146 74.359C 328.656 80.7461 331.642 90.3438 332.457 108.017C 333.339 127.13 333.525 132.863 333.525 181.262C 333.525 229.661 333.339 235.394 332.457 254.507C 331.642 272.18 328.656 281.777 326.146 288.165C 322.822 296.625 318.85 302.664 312.436 309.006C 306.023 315.349 299.918 319.277 291.363 322.566C 284.905 325.048 275.201 328.001 257.332 328.807C 238.009 329.679 232.213 329.864 183.273 329.864C 134.332 329.864 128.537 329.679 109.213 328.807C 91.3443 328.001 81.64 325.048 75.1818 322.566C 66.627 319.277 60.5217 315.349 54.1087 309.006C 47.6957 302.664 43.7234 296.625 40.3987 288.165C 37.8888 281.777 34.9031 272.18 34.0882 254.507C 33.2065 235.394 33.0195 229.661 33.0195 181.262C 33.0195 132.863 33.2065 127.13 34.0882 108.017C 34.9031 90.3438 37.8888 80.7461 40.3987 74.359C 43.7234 65.8981 47.6949 59.8599 54.1087 53.5174C 60.5217 47.1741 66.627 43.2462 75.1818 39.958C 81.64 37.4757 91.3443 34.5228 109.213 33.7169C 128.539 32.8449 134.336 32.66 183.273 32.66L 183.273 32.66Z"/>
<path id="path1_fill" fill-rule="evenodd" d="M 94.1117 153.501C 60.3711 153.501 33.0195 126.45 33.0195 93.0808C 33.0195 59.711 60.3711 32.66 94.1117 32.66C 127.852 32.66 155.203 59.711 155.203 93.0808C 155.203 126.45 127.852 153.501 94.1117 153.501ZM 94.1147 0C 42.1361 0 0 41.6731 0 93.0805C 0 144.487 42.1361 186.16 94.1147 186.16C 146.093 186.16 188.229 144.487 188.229 93.0805C 188.229 41.6731 146.093 0 94.1147 0L 94.1147 0Z"/>
<path id="path2_fill" fill-rule="evenodd" d="M 43.9862 21.7518C 43.9862 33.7649 34.1393 43.5028 21.9927 43.5028C 9.84689 43.5028 0 33.7649 0 21.7518C 0 9.73869 9.84689 0 21.9927 0C 34.1393 0 43.9862 9.73869 43.9862 21.7518"/>
</defs>
</svg>
