<?xml version="1.0" encoding="UTF-8"?>
<svg width="24px" height="24px" viewBox="0 0 24 24" version="1.1" xmlns="http://www.w3.org/2000/svg" xmlns:xlink="http://www.w3.org/1999/xlink">
    <!-- Generator: Sketch 47 (45396) - http://www.bohemiancoding.com/sketch -->
    <title>Web/Social icons/Twitter</title>
    <desc>Created with Sketch.</desc>
    <defs></defs>
    <g id="Symbols" stroke="none" stroke-width="1" fill="none" fill-rule="evenodd">
        <g id="Web/Social-icons/Twitter" fill-rule="nonzero" fill="#F9FAFC">
            <path d="M8.15577101,20.6233766 C15.9625269,20.6233766 20.231738,14.228548 20.231738,8.68317832 C20.231738,8.50154262 20.2279964,8.32073057 20.2197564,8.1407353 C21.0484693,7.54837902 21.7687512,6.80916571 22.3368687,5.96766863 C21.5763937,6.3018926 20.7580241,6.52688668 19.8995309,6.62833993 C20.7757952,6.10880128 21.4485257,5.28695515 21.7659051,4.30722193 C20.9458694,4.78789797 20.0377423,5.13725653 19.070818,5.32587268 C18.2963206,4.51018334 17.1936841,4 15.9727591,4 C13.6289275,4 11.7282608,5.87936635 11.7282608,8.19595426 C11.7282608,8.52526377 11.7654966,8.84558176 11.8383162,9.15283115 C8.31083708,8.97733165 5.18292839,7.30744042 3.08955715,4.76826075 C2.72505676,5.38842899 2.51487968,6.10882187 2.51487968,6.87749444 C2.51487968,8.33343539 3.2641783,9.61874324 4.40360645,10.3706682 C3.70727382,10.3493961 3.05314737,10.1603969 2.48142017,9.84581017 C2.48079541,9.86341709 2.48079541,9.88058267 2.48079541,9.89940036 C2.48079541,11.9317599 3.94378118,13.6286189 5.88582103,14.0131268 C5.52917877,14.1092606 5.15394634,14.1608074 4.76666295,14.1608074 C4.49360004,14.1608074 4.22756224,14.1342337 3.96897993,14.0851276 C4.50931629,15.752541 6.07616537,16.9659167 7.93379285,16.9998236 C6.48115037,18.1256177 4.6512207,18.7961385 2.66239307,18.7961385 C2.32023142,18.7961385 1.98221402,18.7768952 1.64999998,18.7380477 C3.52838346,19.9284984 5.75878597,20.623111 8.15600009,20.623111" id="Shape"></path>
        </g>
    </g>
</svg>