<?xml version="1.0" encoding="UTF-8"?>
<svg width="40px" height="40px" viewBox="0 0 40 40" version="1.1" xmlns="http://www.w3.org/2000/svg" xmlns:xlink="http://www.w3.org/1999/xlink">
    <!-- Generator: Sketch 47.1 (45422) - http://www.bohemiancoding.com/sketch -->
    <title>icons/perils/jag/sjuk_pa_resa</title>
    <desc>Created with Sketch.</desc>
    <defs></defs>
    <g id="Symbols" stroke="none" stroke-width="1" fill="none" fill-rule="evenodd">
        <g id="icons/perils/jag/sjuk_pa_resa">
            <g id="Page-1">
                <g id="Group-3" fill="#F9FAFC">
                    <path d="M20,40.0002 L20,40.0002 C8.955,40.0002 4.05009278e-13,31.0462 4.05009278e-13,20.0002 C4.05009278e-13,8.9542 8.955,0.0002 20,0.0002 C31.046,0.0002 40,8.9542 40,20.0002 C40,31.0462 31.046,40.0002 20,40.0002" id="Fill-1"></path>
                </g>
                <polygon id="Stroke-4" fill="#651EFF" fill-rule="nonzero" points="15.3049 24.6955 15.3049 31.5255 24.6949 31.5255 24.6949 24.6955 30.5249 24.6955 31.5249 24.6955 31.5249 15.3045 24.6949 15.3045 24.6949 8.4745 22.6949 8.4745 22.6949 17.3045 29.5249 17.3045 29.5249 22.6955 22.6949 22.6955 22.6949 29.5255 17.3049 29.5255 17.3049 22.6955 8.4749 22.6955 8.4749 24.6955"></polygon>
                <polygon id="Stroke-5" fill="#0F007A" fill-rule="nonzero" points="8.4751 15.3048 8.4751 24.6958 10.4751 24.6958 10.4751 17.3048 17.3041 17.3048 17.3041 10.4748 24.6951 10.4748 24.6951 8.4748 15.3041 8.4748 15.3041 15.3048"></polygon>
            </g>
        </g>
    </g>
</svg>