<?xml version="1.0" encoding="UTF-8"?>
<svg width="94px" height="30px" viewBox="0 0 94 30" version="1.1" xmlns="http://www.w3.org/2000/svg" xmlns:xlink="http://www.w3.org/1999/xlink">
    <!-- Generator: Sketch 47.1 (45422) - http://www.bohemiancoding.com/sketch -->
    <title>identity/hedvig_wordmark/hedvig_wordmark_blue</title>
    <desc>Created with Sketch.</desc>
    <defs></defs>
    <g id="Symbols" stroke="none" stroke-width="1" fill="none" fill-rule="evenodd">
        <g id="identity/hedvig_wordmark/hedvig_wordmark_blue">
            <g id="Page-1">
                <polygon id="Fill-1" fill="#651EFF" points="71.9235484 21.2564516 75.0687097 21.2564516 75.0687097 6.61935484 71.9235484 6.61935484"></polygon>
                <polygon id="Fill-2" fill="#651EFF" points="47.4125806 21.2574194 50.5587097 21.2574194 50.5587097 0.143225806 47.4125806 0.143225806"></polygon>
                <g id="Group-18">
                    <path d="M42.8814194,9.34674194 C40.3827097,9.34674194 38.3494839,11.3799677 38.3494839,13.8786774 C38.3494839,16.3773871 40.3827097,18.4106129 42.8814194,18.4106129 C45.380129,18.4106129 47.4133548,16.3773871 47.4133548,13.8786774 C47.4133548,11.3799677 45.380129,9.34674194 42.8814194,9.34674194 Z M42.8814194,21.5557742 C38.6475484,21.5557742 35.2033548,18.1115806 35.2033548,13.8786774 C35.2033548,9.64480645 38.6475484,6.2006129 42.8814194,6.2006129 C47.1143226,6.2006129 50.5594839,9.64480645 50.5594839,13.8786774 C50.5594839,18.1115806 47.1143226,21.5557742 42.8814194,21.5557742 Z" id="Fill-3" fill="#0F007A"></path>
                    <polygon id="Fill-5" fill="#0F007A" points="12.2090323 21.2554839 15.3551613 21.2554839 15.3551613 13.8774194 12.2090323 13.8774194"></polygon>
                    <path d="M15.3555484,13.8782903 L12.2094194,13.8782903 C12.2094194,11.3795806 10.1761935,9.34635484 7.67748387,9.34635484 C5.17877419,9.34635484 3.14554839,11.3795806 3.14554839,13.8782903 L0.000387096774,13.8782903 C0.000387096774,9.64441935 3.4436129,6.20022581 7.67748387,6.20022581 C11.9103871,6.20022581 15.3555484,9.64441935 15.3555484,13.8782903" id="Fill-7" fill="#651EFF"></path>
                    <path d="M75.6740323,2.178 C75.6740323,3.38090323 74.6985484,4.35541935 73.4956452,4.35541935 C72.2927419,4.35541935 71.3182258,3.38090323 71.3182258,2.178 C71.3182258,0.975096774 72.2927419,0.000580645161 73.4956452,0.000580645161 C74.6985484,0.000580645161 75.6740323,0.975096774 75.6740323,2.178" id="Fill-8" fill="#0F007A"></path>
                    <polygon id="Fill-9" fill="#0F007A" points="0 21.2574194 3.14516129 21.2574194 3.14516129 0.143225806 0 0.143225806"></polygon>
                    <path d="M93.4043226,13.8782903 L90.2581935,13.8782903 C90.2581935,11.3795806 88.2249677,9.34635484 85.7262581,9.34635484 C83.2275484,9.34635484 81.1952903,11.3795806 81.1952903,13.8782903 L78.0491613,13.8782903 C78.0491613,9.64441935 81.4923871,6.20022581 85.7262581,6.20022581 C89.9591613,6.20022581 93.4043226,9.64441935 93.4043226,13.8782903" id="Fill-10" fill="#0F007A"></path>
                    <path d="M90.2582903,6.61887097 L90.2582903,13.8779032 C90.2582903,16.3766129 88.2250645,18.4108065 85.7263548,18.4108065 C83.2276452,18.4108065 81.1953871,16.3766129 81.1953871,13.8779032 L78.0492581,13.8779032 C78.0492581,18.1117742 81.4924839,21.5559677 85.7263548,21.5559677 C89.9592581,21.5559677 93.4044194,18.1117742 93.4044194,13.8779032 L93.4044194,6.61887097 L90.2582903,6.61887097 Z" id="Fill-11" fill="#651EFF"></path>
                    <polygon id="Fill-12" fill="#651EFF" points="60.9595161 17.3915806 56.1633871 6.61867742 52.7201613 6.61867742 59.2379032 21.2567419 59.2398387 21.2567419"></polygon>
                    <polygon id="Fill-13" fill="#0F007A" points="65.7556452 6.61887097 59.2398387 21.2559677 62.6801613 21.2559677 62.6820968 21.2559677 69.1998387 6.61887097"></polygon>
                    <path d="M90.2582903,21.3594194 C90.2553871,23.8561935 88.223129,25.8865161 85.7263548,25.8865161 C84.9028065,25.8865161 84.1315161,25.662 83.4647419,25.275871 L81.8892581,28.0000645 C83.0195806,28.6552258 84.3289355,29.0326452 85.7263548,29.0326452 C89.9592581,29.0326452 93.4034516,25.5884516 93.4044194,21.3555484 L90.2582903,21.3594194 Z" id="Fill-14" fill="#0F007A"></path>
                    <path d="M27.4467097,17.8570645 C27.4389677,17.8609355 27.4321935,17.8648065 27.4263871,17.8686774 C27.1796129,18.0012581 26.9221935,18.1106129 26.6570323,18.1948065 C26.6309032,18.2025484 26.6067097,18.2102903 26.5805806,18.2180323 C26.4644516,18.252871 26.3454194,18.2838387 26.2263871,18.309 C26.2109032,18.3119032 26.1963871,18.3167419 26.1799355,18.3196452 C26.0512258,18.3457742 25.9205806,18.365129 25.788,18.3796452 C25.7550968,18.3835161 25.7221935,18.3864194 25.6892903,18.3893226 C25.5528387,18.4019032 25.4163871,18.4106129 25.2799355,18.4106129 C23.3338065,18.4106129 21.6760645,17.1757742 21.0344516,15.4512581 L17.7644516,15.4512581 C17.8147742,15.6912581 17.8747742,15.9273871 17.9483226,16.1596452 C18.0605806,16.5196452 18.198,16.869 18.3596129,17.2038387 C18.5221935,17.5396452 18.708,17.8619032 18.9150968,18.1677097 C19.0525161,18.3719032 19.2005806,18.5693226 19.3573548,18.759 C19.5925161,19.0435161 19.8470323,19.3106129 20.1199355,19.5593226 C20.301871,19.7248065 20.4915484,19.8815806 20.6889677,20.0286774 C20.7867097,20.1022258 20.8883226,20.1738387 20.9899355,20.2425484 C21.2967097,20.4506129 21.6189677,20.6364194 21.9538065,20.7980323 C22.9602581,21.2838387 24.0886452,21.5557742 25.2799355,21.5557742 C25.4338065,21.5557742 25.5876774,21.5499677 25.7415484,21.5412581 C25.7831613,21.5383548 25.8247742,21.5344839 25.8654194,21.5315806 C25.9834839,21.522871 26.1005806,21.5112581 26.2167097,21.4967419 C26.2573548,21.4919032 26.2970323,21.4870645 26.3367097,21.4812581 C26.474129,21.462871 26.6125161,21.4396452 26.7489677,21.4135161 C26.7625161,21.4106129 26.7760645,21.4086774 26.7886452,21.4057742 C26.9425161,21.3757742 27.0954194,21.3399677 27.2454194,21.2993226 C27.2754194,21.2915806 27.3054194,21.282871 27.3354194,21.2741613 C27.4496129,21.2431935 27.5628387,21.2083548 27.674129,21.1715806 C27.7234839,21.155129 27.7728387,21.1386774 27.8221935,21.1222258 C27.9150968,21.0883548 28.008,21.0535161 28.1009032,21.0167419 C28.1521935,20.9964194 28.2054194,20.9770645 28.2576774,20.9548065 C28.3776774,20.9044839 28.4957419,20.8502903 28.6128387,20.7941613 C28.6912258,20.7554516 28.7686452,20.7148065 28.8450968,20.6741613 C28.8925161,20.6499677 28.9389677,20.6248065 28.9854194,20.5996452 C29.0299355,20.5754516 29.0734839,20.5493226 29.1170323,20.5241613 L27.5444516,17.8048065 C27.5115484,17.8231935 27.4786452,17.8396452 27.4467097,17.8570645" id="Fill-15" fill="#0F007A"></path>
                    <path d="M32.793871,12.3057097 C32.066129,8.82377419 28.9741935,6.20022581 25.2793548,6.20022581 C21.5854839,6.20022581 18.4925806,8.82377419 17.7648387,12.3057097 L21.0348387,12.3057097 C21.6764516,10.5811935 23.3341935,9.34635484 25.2793548,9.34635484 C27.2245161,9.34635484 28.8822581,10.5811935 29.523871,12.3057097 C29.7067742,12.7963548 29.8112903,13.3247419 29.8112903,13.8782903 C29.8112903,14.4318387 29.7067742,14.9602258 29.523871,15.450871 L32.793871,15.450871 C32.9003226,14.9437742 32.9574194,14.4173226 32.9574194,13.8782903 C32.9574194,13.3392581 32.9003226,12.8128065 32.793871,12.3057097" id="Fill-16" fill="#0F007A"></path>
                    <path d="M29.5239677,12.3057097 L21.0349355,12.3057097 L17.7649355,12.3057097 C17.6584839,12.8128065 17.6023548,13.3392581 17.6023548,13.8782903 C17.6023548,14.010871 17.6052581,14.1424839 17.6110645,14.273129 C17.6323548,14.6747419 17.6846129,15.0676452 17.7649355,15.450871 L21.0349355,15.450871 L29.5239677,15.450871 C29.7059032,14.9602258 29.8113871,14.4318387 29.8113871,13.8782903 C29.8113871,13.3247419 29.7059032,12.7963548 29.5239677,12.3057097" id="Fill-17" fill="#651EFF"></path>
                </g>
            </g>
        </g>
    </g>
</svg>