<?xml version="1.0" encoding="UTF-8"?>
<svg width="40px" height="40px" viewBox="0 0 40 40" version="1.1" xmlns="http://www.w3.org/2000/svg" xmlns:xlink="http://www.w3.org/1999/xlink">
    <!-- Generator: Sketch 47.1 (45422) - http://www.bohemiancoding.com/sketch -->
    <title>icons/perils/mina_prylar/stold</title>
    <desc>Created with Sketch.</desc>
    <defs></defs>
    <g id="Symbols" stroke="none" stroke-width="1" fill="none" fill-rule="evenodd">
        <g id="icons/perils/mina_prylar/stold">
            <g id="Page-1">
                <g id="Group-3" fill="#F9FAFC">
                    <path d="M20.0001,40.0002 L20.0001,40.0002 C8.9541,40.0002 0.0001,31.0452 0.0001,20.0002 C0.0001,8.9542 8.9541,0.0002 20.0001,0.0002 C31.0461,0.0002 40.0001,8.9542 40.0001,20.0002 C40.0001,31.0452 31.0461,40.0002 20.0001,40.0002" id="Fill-1"></path>
                </g>
                <g id="Group-14" transform="translate(4.000000, 7.000000)" fill-rule="nonzero">
                    <path d="M26.128,12.0378 L26.128,3.5638 C26.128,1.95261602 24.7605501,0.6758 23.106,0.6758 L8.895,0.6758 C7.23967473,0.6758 5.872,1.95238983 5.872,3.5638 L5.872,12.0378 L7.872,12.0378 L7.872,3.5638 C7.872,3.08893865 8.31461616,2.6758 8.895,2.6758 L23.106,2.6758 C23.6854682,2.6758 24.128,3.08900106 24.128,3.5638 L24.128,12.0378 L26.128,12.0378 Z" id="Stroke-4" fill="#009175"></path>
                    <polygon id="Stroke-6" fill="#009175" points="0.2266 12.0378 31.7736 12.0378 31.7736 10.0378 0.2266 10.0378"></polygon>
                    <path d="M8.98069482,25.2798903 C6.83747737,26.0143799 4.6075,24.4218156 4.6075,22.1559 L4.6075,14.0749 L27.3925,14.0749 L27.3925,22.1559 C27.3925,24.4218156 25.1625226,26.0143799 23.0276987,25.2827253 L16.0004758,22.9438267 L8.98069482,25.2798903 Z M6.6075,22.1559 C6.6075,23.0494631 7.48702939,23.6775892 8.34073739,23.3850618 L16.0005215,20.8359724 L16.3163013,20.9410747 L23.6676948,23.3879097 C24.5129706,23.6775892 25.3925,23.0494631 25.3925,22.1559 L25.3925,16.0749 L6.6075,16.0749 L6.6075,22.1559 Z" id="Stroke-8" fill="#1BE9B6"></path>
                    <polygon id="Stroke-10" fill="#009175" points="8.16542773 18.645234 12.583134 20.9650723 13.5129723 19.194366 9.09526595 16.8745277"></polygon>
                    <polygon id="Stroke-12" fill="#009175" points="22.899034 16.8745277 18.4813277 19.194366 19.411166 20.9650723 23.8288723 18.645234"></polygon>
                </g>
            </g>
        </g>
    </g>
</svg>