<?xml version="1.0" encoding="UTF-8"?>
<svg width="40px" height="40px" viewBox="0 0 40 40" version="1.1" xmlns="http://www.w3.org/2000/svg" xmlns:xlink="http://www.w3.org/1999/xlink">
    <!-- Generator: Sketch 47.1 (45422) - http://www.bohemiancoding.com/sketch -->
    <title>icons/perils/mina_prylar/vattenlacka</title>
    <desc>Created with Sketch.</desc>
    <defs></defs>
    <g id="Symbols" stroke="none" stroke-width="1" fill="none" fill-rule="evenodd">
        <g id="icons/perils/mina_prylar/vattenlacka">
            <g id="Page-1-Copy-8">
                <g id="Group-3" fill="#F9FAFC">
                    <path d="M20.0001,40.0002 L20.0001,40.0002 C8.9541,40.0002 0.0001,31.0452 0.0001,20.0002 C0.0001,8.9542 8.9541,0.0002 20.0001,0.0002 C31.0451,0.0002 40.0001,8.9542 40.0001,20.0002 C40.0001,31.0452 31.0451,40.0002 20.0001,40.0002" id="Fill-1"></path>
                </g>
                <polygon id="Stroke-4" fill="#009175" fill-rule="nonzero" points="15.2877 28.0666 15.2877 32.5106 17.2877 32.5106 17.2877 28.0666"></polygon>
                <g id="Group-11" transform="translate(6.000000, 8.000000)" fill-rule="nonzero">
                    <path d="M25.8358,16.5575 C25.8358,17.0128552 25.4658753,17.3825 25.0098,17.3825 L25.0098,19.3825 C26.5701062,19.3825 27.8358,18.1177636 27.8358,16.5575 C27.8358,15.4568113 27.3592196,14.2674757 25.908485,11.2949053 L25.0165825,9.46738784 L24.1137565,11.2895337 C22.7284743,14.0854062 22.1838,15.4493857 22.1838,16.5575 C22.185348,18.1184066 23.4499199,19.3825 25.0098,19.3825 L25.0098,17.3825 C24.5539893,17.3825 24.1842523,17.0129028 24.1837995,16.5565079 C24.1837999,16.095664 24.4358939,15.3274749 25.0066176,14.0621587 C25.603115,15.3812985 25.8358,16.0940922 25.8358,16.5575 Z" id="Stroke-5" fill="#009175"></path>
                    <path d="M26.9879,4.5109 C26.9879,3.40618475 26.0926153,2.5109 24.9879,2.5109 C23.8831847,2.5109 22.9879,3.40618475 22.9879,4.5109 C22.9879,5.61561525 23.8831847,6.5109 24.9879,6.5109 C26.0926153,6.5109 26.9879,5.61561525 26.9879,4.5109 Z M28.9879,4.5109 C28.9879,6.72018475 27.1971847,8.5109 24.9879,8.5109 C22.7786153,8.5109 20.9879,6.72018475 20.9879,4.5109 C20.9879,2.30161525 22.7786153,0.5109 24.9879,0.5109 C27.1971847,0.5109 28.9879,2.30161525 28.9879,4.5109 Z" id="Stroke-7" fill="#1BE9B6"></path>
                    <path d="M2.4539,2.7889 L6.4539,2.7889 L6.4539,16.4559 C6.4539,18.5703941 8.17282463,20.2889 10.2879,20.2889 C12.4021847,20.2889 14.1209,18.5701847 14.1209,16.4559 L14.1209,6.5099 C14.1209,4.30580865 15.9155608,2.5109 18.1199,2.5109 L24.9879,2.5109 L24.9879,0.5109 L18.1199,0.5109 C14.8109295,0.5109 12.1209,3.20130097 12.1209,6.5099 L12.1209,16.4559 C12.1209,17.4656153 11.2976153,18.2889 10.2879,18.2889 C9.27728507,18.2889 8.4539,17.4657155 8.4539,16.4559 L8.4539,0.7889 L0.4539,0.7889 L0.4539,16.4559 C0.4539,21.8783571 4.8647876,26.2889 10.2879,26.2889 C15.7101847,26.2889 20.1209,21.8781847 20.1209,16.4559 L20.1209,8.5109 L24.9879,8.5109 L24.9879,6.5109 L18.1209,6.5109 L18.1209,16.4559 C18.1209,20.7736153 14.6056153,24.2889 10.2879,24.2889 C5.96932211,24.2889 2.4539,20.7737526 2.4539,16.4559 L2.4539,2.7889 Z" id="Stroke-9" fill="#1BE9B6"></path>
                </g>
            </g>
        </g>
    </g>
</svg>