<?xml version="1.0" encoding="UTF-8"?>
<svg width="40px" height="40px" viewBox="0 0 40 40" version="1.1" xmlns="http://www.w3.org/2000/svg" xmlns:xlink="http://www.w3.org/1999/xlink">
    <!-- Generator: Sketch 47.1 (45422) - http://www.bohemiancoding.com/sketch -->
    <title>icons/profil/trygghetshojare</title>
    <desc>Created with Sketch.</desc>
    <defs></defs>
    <g id="Symbols" stroke="none" stroke-width="1" fill="none" fill-rule="evenodd">
        <g id="icons/profil/trygghetshojare">
            <circle id="Oval" fill="#F9FAFC" cx="20" cy="20" r="20"></circle>
            <g id="Page-1" transform="translate(11.500000, 5.700000)" fill-rule="nonzero">
                <path d="M3.6538,11.4001 L3.6538,6.1861 C3.6538,3.33575453 5.98971494,1.0001 8.8398,1.0001 C11.6898851,1.0001 14.0258,3.33575453 14.0258,6.1861 L14.0258,11.4001 L16.0258,11.4001 L16.0258,6.1861 C16.0258,2.23113511 12.7944046,-0.9999 8.8398,-0.9999 C4.88519535,-0.9999 1.6538,2.23113511 1.6538,6.1861 L1.6538,11.4001 L3.6538,11.4001 Z" id="Stroke-1" fill="#FF8A80"></path>
                <polygon id="Stroke-3" fill="#FF8A80" points="-1 24.3948 -1 26.3948 18.679 26.3948 18.679 9.4358 16.679 9.4358 16.679 24.3948"></polygon>
                <polygon id="Stroke-5" fill="#AA0045" points="18.6792 11.4353 18.6792 9.4353 -0.9998 9.4353 -0.9998 26.3943 1.0002 26.3943 1.0002 11.4353"></polygon>
                <polygon id="Stroke-7" fill="#FF8A80" points="18.6792 26.3948 18.6792 9.4358 16.6792 9.4358 16.6792 26.3948"></polygon>
                <polygon id="Stroke-10" fill="#FF8A80" points="7.8399 18.7898 7.8399 22.5718 9.8399 22.5718 9.8399 18.7898"></polygon>
                <path d="M10.3125,16.6233 C10.3125,15.8095847 9.65321525,15.1503 8.8395,15.1503 C8.02578475,15.1503 7.3665,15.8095847 7.3665,16.6233 C7.3665,17.4370153 8.02578475,18.0963 8.8395,18.0963 C9.65321525,18.0963 10.3125,17.4370153 10.3125,16.6233 Z M12.3125,16.6233 C12.3125,18.5415847 10.7577847,20.0963 8.8395,20.0963 C6.92121525,20.0963 5.3665,18.5415847 5.3665,16.6233 C5.3665,14.7050153 6.92121525,13.1503 8.8395,13.1503 C10.7577847,13.1503 12.3125,14.7050153 12.3125,16.6233 Z" id="Stroke-12" fill="#AA0045"></path>
            </g>
        </g>
    </g>
</svg>