<?xml version="1.0" encoding="UTF-8"?>
<svg width="40px" height="40px" viewBox="0 0 40 40" version="1.1" xmlns="http://www.w3.org/2000/svg" xmlns:xlink="http://www.w3.org/1999/xlink">
    <!-- Generator: Sketch 47.1 (45422) - http://www.bohemiancoding.com/sketch -->
    <title>icons/profil/valgorenhet</title>
    <desc>Created with Sketch.</desc>
    <defs></defs>
    <g id="Symbols" stroke="none" stroke-width="1" fill="none" fill-rule="evenodd">
        <g id="icons/profil/valgorenhet">
            <g id="Page-1">
                <path d="M39.9999,20.0001 C39.9999,31.0451 31.0459,40.0001 19.9999,40.0001 C8.9539,40.0001 -0.0001,31.0451 -0.0001,20.0001 C-0.0001,8.9541 8.9539,0.0001 19.9999,0.0001 C31.0459,0.0001 39.9999,8.9541 39.9999,20.0001" id="Fill-1" fill="#F9FAFC"></path>
                <path d="M19.0468,29.5245 C13.4508,24.4445 9.7538,21.0885 9.7538,17.2895 C9.7538,14.3875 12.0268,12.1145 14.9288,12.1145 C16.3438,12.1145 17.7588,12.6835 18.8108,13.6765 L18.9658,13.8225 L20.2758,12.2385 L20.1348,12.1105 C18.7148,10.8115 16.8178,10.0665 14.9288,10.0665 C10.8788,10.0665 7.7058,13.2395 7.7058,17.2895 C7.7058,21.9945 11.6728,25.5955 17.6778,31.0475 L18.8398,32.1015 L20.2898,30.6515 L19.0468,29.5245 Z" id="Fill-4" fill="#AA0045"></path>
                <path d="M25.0715,10.0665 C23.1825,10.0665 21.2845,10.8115 19.8605,12.1145 L18.5345,13.4135 L18.6855,13.5555 C18.8275,13.6905 19.0935,13.9555 19.2215,14.1055 L19.9995,15.0155 L20.7785,14.1055 C21.8445,12.8585 23.4495,12.1145 25.0715,12.1145 C27.9735,12.1145 30.2465,14.3875 30.2465,17.2895 C30.2465,21.0885 26.5465,24.4465 20.9465,29.5305 L19.8625,30.5135 L18.5035,31.7965 L19.9995,33.1535 L22.3315,31.0385 C28.3305,25.5925 32.2935,21.9945 32.2935,17.2895 C32.2935,13.2395 29.1215,10.0665 25.0715,10.0665" id="Fill-6" fill="#FF8A80"></path>
            </g>
        </g>
    </g>
</svg>