<?xml version="1.0" encoding="UTF-8"?>
<svg width="40px" height="40px" viewBox="0 0 40 40" version="1.1" xmlns="http://www.w3.org/2000/svg" xmlns:xlink="http://www.w3.org/1999/xlink">
    <!-- Generator: Sketch 47.1 (45422) - http://www.bohemiancoding.com/sketch -->
    <title>icons/perils/min_lagenhet/inbrott</title>
    <desc>Created with Sketch.</desc>
    <defs></defs>
    <g id="Symbols" stroke="none" stroke-width="1" fill="none" fill-rule="evenodd">
        <g id="icons/perils/min_lagenhet/inbrott">
            <g id="Page-1">
                <g id="Group-3" fill="#F9FAFC">
                    <path d="M20,40.0003 L20,40.0003 C8.954,40.0003 0,31.0453 0,20.0003 C0,8.9543 8.954,0.0003 20,0.0003 C31.046,0.0003 40,8.9543 40,20.0003 C40,31.0453 31.046,40.0003 20,40.0003" id="Fill-1"></path>
                </g>
                <g id="Group-20" transform="translate(10.000000, 4.000000)" fill-rule="nonzero">
                    <path d="M10,3.1165 C12.8500851,3.1165 15.186,5.45215453 15.186,8.3025 L15.186,13.5155 L17.186,13.5155 L17.186,8.3025 C17.186,4.34753511 13.9546046,1.1165 10,1.1165 L9,1.1165 L9,3.1165 L10,3.1165 Z" id="Stroke-4" fill="#FF8A80"></path>
                    <polygon id="Stroke-6" fill="#FF8A80" points="4.814 13.5159 4.814 7.3019 2.814 7.3019 2.814 13.5159"></polygon>
                    <polygon id="Stroke-8" fill="#FF8A80" points="0.1602 26.5111 0.1602 28.5111 19.8392 28.5111 19.8392 11.5521 17.8392 11.5521 17.8392 26.5111"></polygon>
                    <polygon id="Stroke-10" fill="#AA0045" points="2.1604 13.5521 19.8394 13.5521 19.8394 11.5521 0.1604 11.5521 0.1604 28.5111 2.1604 28.5111"></polygon>
                    <polygon id="Stroke-12" fill="#FF8A80" points="19.8394 28.5111 19.8394 11.5521 17.8394 11.5521 17.8394 28.5111"></polygon>
                    <polygon id="Stroke-14" fill="#FF6666" points="9 20.9056 9 24.6876 11 24.6876 11 20.9056"></polygon>
                    <path d="M11.4727,18.7396 C11.4727,17.9258847 10.8134153,17.2666 9.9997,17.2666 C9.18657685,17.2666 8.5267,17.9262926 8.5267,18.7396 C8.5267,19.5523153 9.18698475,20.2126 9.9997,20.2126 C10.8130074,20.2126 11.4727,19.5527232 11.4727,18.7396 Z M13.4727,18.7396 C13.4727,20.6571676 11.917702,22.2126 9.9997,22.2126 C8.08241525,22.2126 6.5267,20.6568847 6.5267,18.7396 C6.5267,16.821598 8.08213237,15.2666 9.9997,15.2666 C11.9179847,15.2666 13.4727,16.8213153 13.4727,18.7396 Z" id="Stroke-16" fill="#AA0045"></path>
                    <polygon id="Stroke-18" fill="#AA0045" points="4.69047829 2.02649593 2.51059593 0.265821713 1.25392171 1.82170407 3.43380407 3.58237829"></polygon>
                </g>
            </g>
        </g>
    </g>
</svg>