<?xml version="1.0" encoding="UTF-8"?>
<svg width="40px" height="40px" viewBox="0 0 40 40" version="1.1" xmlns="http://www.w3.org/2000/svg" xmlns:xlink="http://www.w3.org/1999/xlink">
    <!-- Generator: Sketch 47.1 (45422) - http://www.bohemiancoding.com/sketch -->
    <title>icons/perils/min_lagenhet/skadedjur</title>
    <desc>Created with Sketch.</desc>
    <defs></defs>
    <g id="Symbols" stroke="none" stroke-width="1" fill="none" fill-rule="evenodd">
        <g id="icons/perils/min_lagenhet/skadedjur">
            <g id="Page-1">
                <g id="Group-3" fill="#F9FAFC">
                    <path d="M20,40.0003 L20,40.0003 C8.954,40.0003 0,31.0453 0,20.0003 C0,8.9543 8.954,0.0003 20,0.0003 C31.046,0.0003 40,8.9543 40,20.0003 C40,31.0453 31.046,40.0003 20,40.0003" id="Fill-1"></path>
                </g>
                <polygon id="Stroke-4" fill="#AA0045" fill-rule="nonzero" points="23.4137068 11.7357068 27.9027068 7.24670678 26.4884932 5.83249322 21.9994932 10.3214932"></polygon>
                <polygon id="Stroke-5" fill="#AA0045" fill-rule="nonzero" points="18.0006068 10.3214932 13.5116068 5.83249322 12.0973932 7.24670678 16.5863932 11.7357068"></polygon>
                <polygon id="Stroke-6" fill="#AA0045" fill-rule="nonzero" points="6.7544 16.2533 12.1704 16.2533 12.1704 14.2533 6.7544 14.2533"></polygon>
                <polygon id="Stroke-7" fill="#AA0045" fill-rule="nonzero" points="27.8291 16.2533 33.2461 16.2533 33.2461 14.2533 27.8291 14.2533"></polygon>
                <polygon id="Stroke-8" fill="#AA0045" fill-rule="nonzero" points="4.6421 22.2445 11.5501 22.2445 11.5501 20.2445 4.6421 20.2445"></polygon>
                <polygon id="Stroke-9" fill="#AA0045" fill-rule="nonzero" points="28.4497 22.2445 35.3577 22.2445 35.3577 20.2445 28.4497 20.2445"></polygon>
                <polygon id="Stroke-10" fill="#AA0045" fill-rule="nonzero" points="6.7544 28.2366 12.4844 28.2366 12.4844 26.2366 6.7544 26.2366"></polygon>
                <polygon id="Stroke-11" fill="#AA0045" fill-rule="nonzero" points="27.8291 28.2366 33.2461 28.2366 33.2461 26.2366 27.8291 26.2366"></polygon>
                <g id="Group-20" transform="translate(10.000000, 8.000000)" fill="#FF8A80">
                    <path d="M10,23.5111 C14.1145789,23.5111 17.45,20.1759516 17.45,16.0621 L17.45,10.4281 C17.45,6.31424843 14.1145789,2.9791 10,2.9791 C5.88542109,2.9791 2.55,6.31424843 2.55,10.4281 L2.55,16.0621 C2.55,20.1759516 5.88542109,23.5111 10,23.5111 Z M10,25.5111 C4.78088818,25.5111 0.55,21.2805577 0.55,16.0621 L0.55,10.4281 C0.55,5.20964233 4.78088818,0.9791 10,0.9791 C15.2191118,0.9791 19.45,5.20964233 19.45,10.4281 L19.45,16.0621 C19.45,21.2805577 15.2191118,25.5111 10,25.5111 Z" id="Stroke-12" fill-rule="nonzero"></path>
                    <path d="M11.4082,13.2445 C11.4082,12.4675 10.7782,11.8365 10.0002,11.8365 C9.2222,11.8365 8.5922,12.4675 8.5922,13.2445 C8.5922,14.0225 9.2222,14.6535 10.0002,14.6535 C10.7782,14.6535 11.4082,14.0225 11.4082,13.2445" id="Fill-14"></path>
                    <path d="M11.4082,19.2366 C11.4082,18.4586 10.7782,17.8286 10.0002,17.8286 C9.2222,17.8286 8.5922,18.4586 8.5922,19.2366 C8.5922,20.0136 9.2222,20.6446 10.0002,20.6446 C10.7782,20.6446 11.4082,20.0136 11.4082,19.2366" id="Fill-16"></path>
                    <path d="M11.4082,7.2533 C11.4082,6.4763 10.7782,5.8453 10.0002,5.8453 C9.2222,5.8453 8.5922,6.4763 8.5922,7.2533 C8.5922,8.0313 9.2222,8.6613 10.0002,8.6613 C10.7782,8.6613 11.4082,8.0313 11.4082,7.2533" id="Fill-18"></path>
                </g>
            </g>
        </g>
    </g>
</svg>