<?xml version="1.0" encoding="UTF-8"?>
<svg width="60px" height="40px" viewBox="0 0 60 40" version="1.1" xmlns="http://www.w3.org/2000/svg" xmlns:xlink="http://www.w3.org/1999/xlink">
    <!-- Generator: Sketch 47.1 (45422) - http://www.bohemiancoding.com/sketch -->
    <title>buttons/chat/skip</title>
    <desc>Created with Sketch.</desc>
    <defs></defs>
    <g id="Symbols" stroke="none" stroke-width="1" fill="none" fill-rule="evenodd">
        <g id="buttons/chat/skip">
            <rect id="Rectangle" fill="#651FFF" x="0" y="0" width="60" height="40" rx="20"></rect>
            <path d="M23.875,17.328 C23.651,16.25 22.755,14.864 20.515,14.864 C18.681,14.864 17.239,16.264 17.239,17.818 C17.239,19.302 18.247,20.226 19.661,20.534 L21.075,20.842 C22.069,21.052 22.559,21.668 22.559,22.382 C22.559,23.25 21.887,23.964 20.515,23.964 C19.017,23.964 18.233,22.942 18.135,21.836 L16.819,22.256 C17.001,23.67 18.135,25.21 20.529,25.21 C22.643,25.21 23.959,23.81 23.959,22.27 C23.959,20.884 23.035,19.848 21.383,19.484 L19.899,19.162 C19.059,18.98 18.625,18.434 18.625,17.72 C18.625,16.796 19.423,16.068 20.543,16.068 C21.929,16.068 22.531,17.048 22.643,17.762 L23.875,17.328 Z M31.673,18.266 L29.853,18.266 L26.941,21.248 L26.941,14.864 L25.639,14.864 L25.639,25 L26.941,25 L26.941,22.97 L27.879,22.032 L30.077,25 L31.729,25 L28.803,21.108 L31.673,18.266 Z M34.291,25 L34.291,18.266 L32.989,18.266 L32.989,25 L34.291,25 Z M32.695,15.718 C32.695,16.236 33.115,16.656 33.633,16.656 C34.165,16.656 34.585,16.236 34.585,15.718 C34.585,15.186 34.165,14.766 33.633,14.766 C33.115,14.766 32.695,15.186 32.695,15.718 Z M37.833,27.66 L36.531,27.66 L36.531,18.266 L37.805,18.266 L37.805,19.316 C38.169,18.644 38.967,18.112 40.059,18.112 C42.075,18.112 43.153,19.666 43.153,21.626 C43.153,23.628 41.991,25.182 40.017,25.182 C38.981,25.182 38.197,24.692 37.833,24.09 L37.833,27.66 Z M41.809,21.626 C41.809,20.282 41.053,19.274 39.821,19.274 C38.617,19.274 37.819,20.282 37.819,21.626 C37.819,23.012 38.617,24.006 39.821,24.006 C41.039,24.006 41.809,23.012 41.809,21.626 Z" id="Skip" fill="#FFFFFF"></path>
        </g>
    </g>
</svg>