<?xml version="1.0" encoding="utf-8"?>
<!-- Generator: Adobe Illustrator 22.0.1, SVG Export Plug-In . SVG Version: 6.00 Build 0)  -->
<svg version="1.1" id="Lager_1" xmlns="http://www.w3.org/2000/svg" xmlns:xlink="http://www.w3.org/1999/xlink" x="0px" y="0px"
	 viewBox="0 0 332 332.7" style="enable-background:new 0 0 332 332.7;" xml:space="preserve">
<style type="text/css">
	.st0{fill:#3D3896;}
	.st1{fill:#FFFFFF;}
	.st2{opacity:0.8;}
	.st3{fill:#0F007A;}
	.st4{fill:#651FFF;}
	.st5{fill:#1DE9B6;}
	.st6{fill:none;}
</style>
<g>
	<circle class="st0" cx="166" cy="166.3" r="166"/>
</g>
<g>
	<rect x="92.6" y="64.3" class="st1" width="147.3" height="183.2"/>
</g>
<g class="st2">
	<rect x="115.2" y="122.7" class="st3" width="101.7" height="9.8"/>
</g>
<g class="st2">
	<rect x="115.2" y="151.2" class="st3" width="101.7" height="9.8"/>
</g>
<g class="st2">
	<rect x="115.2" y="179.6" class="st3" width="74.8" height="9.8"/>
</g>
<g class="st2">
	<rect x="115.2" y="208.1" class="st3" width="51.2" height="9.8"/>
</g>
<g>
	
		<rect x="180.7" y="167.1" transform="matrix(0.7071 -0.7071 0.7071 0.7071 -54.5887 217.0117)" class="st4" width="108" height="14.6"/>
</g>
<g>
	<g>
		<polygon class="st4" points="201.7,217.7 191.3,207.4 191.3,217.7 		"/>
	</g>
</g>
<g class="st2">
	<rect x="115.2" y="94.3" class="st3" width="101.7" height="9.8"/>
</g>
<g>
	<polygon points="230.2,257.3 82.9,257.3 82.9,74.1 92.6,74.1 92.6,247.5 230.2,247.5 	"/>
</g>
<g>
	<circle class="st5" cx="284.5" cy="271.5" r="35.4"/>
</g>
<g>
	<polygon class="st1" points="279.3,287.6 264.2,272.5 266.3,270.4 279.3,283.4 302.6,260.1 304.7,262.2 	"/>
</g>
</svg>
