<?xml version="1.0" encoding="UTF-8"?>
<svg width="56px" height="56px" viewBox="0 0 56 56" version="1.1" xmlns="http://www.w3.org/2000/svg" xmlns:xlink="http://www.w3.org/1999/xlink">
    <!-- Generator: Sketch 47.1 (45422) - http://www.bohemiancoding.com/sketch -->
    <title>icons/choose_picture</title>
    <desc>Created with Sketch.</desc>
    <defs></defs>
    <g id="Symbols" stroke="none" stroke-width="1" fill="none" fill-rule="evenodd">
        <g id="icons/choose_picture">
            <circle id="Oval-4-Copy" stroke="#9B9BAA" cx="28" cy="28" r="27.5"></circle>
            <g id="Group" transform="translate(14.000000, 14.000000)" fill-rule="nonzero" fill="#9B9BAA">
                <path d="M28.0418788,11.3016755 L6.81365777,7.5583296 L3.85834877,24.3145255 L25.0875146,28.0578694 L28.0418788,11.3016755 Z M2.87354156,24.1408742 L5.8288519,7.38467072 L5.82888336,7.38467627 C5.92480771,6.84079836 6.44346158,6.47765375 6.98734255,6.57356074 L28.2155153,10.3168657 L28.2155114,10.316888 C28.7593959,10.4127956 29.1225576,10.9314437 29.0266623,11.4753304 L26.0723219,28.2315207 L26.0723366,28.2315233 C25.9764399,28.7754188 25.4577858,29.1385935 24.9138903,29.0426967 C24.9138854,29.0426958 24.9138805,29.0426949 24.9138755,29.0426941 L3.68465843,25.2993258 L3.68465155,25.2993648 C3.14075755,25.2034599 2.77759068,24.6848003 2.87349564,24.1409063 C2.87349793,24.1408933 2.87350023,24.1408803 2.87350252,24.1408673 Z" id="Stroke-1"></path>
                <path d="M22.387248,1.15862466 L23.991401,10.2532516 L24.976199,10.0795484 L23.3720552,0.984973369 L23.3720032,0.984982542 C23.2760731,0.441113914 22.7574276,0.0779772514 22.2135539,0.173878631 L0.984358435,3.91717419 L0.984351551,3.91713515 C0.440457551,4.01304011 0.0772906793,4.53169965 0.17319564,5.07559365 C0.173197935,5.07560666 0.17320023,5.07561968 0.173202525,5.07563269 L3.21539984,22.3242452 L4.20020016,22.1505548 L1.15804877,4.90197451 L22.387248,1.15862466 Z" id="Stroke-3"></path>
                <path d="M19.5689291,24.6556395 L23.0349052,22.4011017 L25.634325,25.8688 L26.434475,25.269 L23.8350551,21.8013016 L23.8350551,21.8013016 C23.5192757,21.3800432 22.9309587,21.2757704 22.4896357,21.5628408 L19.8218709,23.2981605 L13.2173,14.1564904 L13.2173,14.1564904 C12.9035602,13.7222297 12.3033241,13.6123666 11.856109,13.9073474 L3.91309669,19.1465176 L4.46370331,19.9812824 L12.4067156,14.7421123 L19.5689291,24.6556395 Z" id="Stroke-6"></path>
                <path d="M20.9109924,16.8625662 C20.9943125,16.8772361 21.0790131,16.8846222 21.1629111,16.8846222 C21.8570286,16.8846222 22.4577397,16.385431 22.5802272,15.693784 C22.5950652,15.6095116 22.6024556,15.5248103 22.6024556,15.4412111 C22.6024556,14.7475149 22.1030361,14.1467214 21.4095234,14.0239037 C21.3272608,14.0092669 21.2432547,14.0019889 21.1584,14.0019889 C20.4643928,14.0019889 19.8634488,14.5014396 19.7407617,15.1931493 C19.7259195,15.2774458 19.7185333,15.3621464 19.7185333,15.4460444 C19.7185333,16.139025 20.218209,16.739878 20.9109924,16.8625662 Z M20.7366111,17.8472444 C19.5521222,17.6374778 18.7185333,16.6095889 18.7185333,15.4460444 C18.7185333,15.3052333 18.7307778,15.1624889 18.7559111,15.0197444 C18.966,13.8352556 19.9938889,13.0019889 21.1584,13.0019889 C21.2988889,13.0019889 21.4416333,13.0139111 21.5847,13.0393667 C22.7691889,13.2491333 23.6024556,14.2770222 23.6024556,15.4412111 C23.6024556,15.5817 23.5902111,15.7244444 23.5650778,15.8671889 C23.3553111,17.0516778 22.3274222,17.8846222 21.1629111,17.8846222 C21.0221,17.8846222 20.8793556,17.8723778 20.7366111,17.8472444 Z" id="Shape"></path>
            </g>
        </g>
    </g>
</svg>