<?xml version="1.0" encoding="UTF-8"?>
<svg width="16px" height="16px" viewBox="0 0 16 16" version="1.1" xmlns="http://www.w3.org/2000/svg" xmlns:xlink="http://www.w3.org/1999/xlink">
    <!-- Generator: Sketch 47.1 (45422) - http://www.bohemiancoding.com/sketch -->
    <title>icons/my_insurance/pris</title>
    <desc>Created with Sketch.</desc>
    <defs></defs>
    <g id="Symbols" stroke="none" stroke-width="1" fill="none" fill-rule="evenodd">
        <g id="icons/my_insurance/pris">
            <circle id="Oval-Copy" fill="#651EFF" cx="8" cy="8" r="8"></circle>
            <path d="M8.585,6.671 L7.415,6.671 L5.543,8.588 L5.543,4.484 L4.706,4.484 L4.706,11 L5.543,11 L5.543,9.695 L6.146,9.092 L7.559,11 L8.621,11 L6.74,8.498 L8.585,6.671 Z M11.834,6.626 C11.789,6.617 11.672,6.599 11.555,6.599 C11.114,6.599 10.574,6.761 10.259,7.427 L10.259,6.671 L9.431,6.671 L9.431,11 L10.277,11 L10.277,8.831 C10.277,7.877 10.754,7.499 11.465,7.499 C11.582,7.499 11.708,7.508 11.834,7.526 L11.834,6.626 Z" id="kr" fill="#FFFFFF"></path>
        </g>
    </g>
</svg>