<?xml version="1.0" encoding="UTF-8"?>
<svg width="16px" height="16px" viewBox="0 0 16 16" version="1.1" xmlns="http://www.w3.org/2000/svg" xmlns:xlink="http://www.w3.org/1999/xlink">
    <!-- Generator: Sketch 47.1 (45422) - http://www.bohemiancoding.com/sketch -->
    <title>icons/my_insurance/worldwide</title>
    <desc>Created with Sketch.</desc>
    <defs></defs>
    <g id="Symbols" stroke="none" stroke-width="1" fill="none" fill-rule="evenodd">
        <g id="icons/my_insurance/worldwide" fill="#0F007A">
            <path d="M7.996,0 C3.576,0 0,3.58 0,8 C0,12.42 3.576,16 7.996,16 C12.416,16 16,12.42 16,8 C16,3.58 12.416,0 7.996,0 Z M13.6,4.8 L11.1473441,4.8 C10.8771363,3.81685393 10.4988453,2.87303371 10,2 C11.5297921,2.49550562 12.8018476,3.49831461 13.6,4.8 Z M8,1.6 C8.69947644,2.56847415 9.24397906,3.64590164 9.6,4.8 L6.4,4.8 C6.75602094,3.64590164 7.30052356,2.56847415 8,1.6 Z M1.8,9.6 C1.67307692,9.088 1.6,8.552 1.6,8 C1.6,7.448 1.67307692,6.912 1.8,6.4 L4.39615385,6.4 C4.33461538,6.924 4.29230769,7.456 4.29230769,8 C4.29230769,8.544 4.33461538,9.076 4.4,9.6 L1.8,9.6 Z M2.4,11.2 L4.85265589,11.2 C5.12286374,12.181767 5.50115473,13.1242634 6,14 C4.47020785,13.505189 3.19815242,12.4998596 2.4,11.2 Z M4.85265589,4.8 L2.4,4.8 C3.19815242,3.50014025 4.47020785,2.49481066 6,2 C5.50115473,2.87573633 5.12286374,3.81823282 4.85265589,4.8 Z M8,14.4 C7.30471204,13.4315259 6.76020942,12.3540984 6.4,11.2 L9.6,11.2 C9.23979058,12.3540984 8.69528796,13.4315259 8,14.4 Z M9.872,9.6 L6.128,9.6 C6.052,9.076 6,8.544 6,8 C6,7.456 6.052,6.924 6.128,6.4 L9.872,6.4 C9.948,6.924 10,7.456 10,8 C10,8.544 9.948,9.076 9.872,9.6 Z M10,14 C10.4988453,13.123034 10.8771363,12.1831462 11.1473441,11.2 L13.6,11.2 C12.7976905,12.5016856 11.5256351,13.5044947 10,14 Z M11.6,9.6 C11.6615385,9.076 11.7076923,8.544 11.7076923,8 C11.7076923,7.456 11.6653846,6.924 11.6,6.4 L14.1961538,6.4 C14.3230769,6.912 14.4,7.448 14.4,8 C14.4,8.552 14.3269231,9.088 14.1961538,9.6 L11.6,9.6 Z" id="Page-1"></path>
        </g>
    </g>
</svg>