<?xml version="1.0" encoding="UTF-8"?>
<svg width="40px" height="40px" viewBox="0 0 40 40" version="1.1" xmlns="http://www.w3.org/2000/svg" xmlns:xlink="http://www.w3.org/1999/xlink">
    <!-- Generator: Sketch 47.1 (45422) - http://www.bohemiancoding.com/sketch -->
    <title>icons/perils/mina_prylar/drulle</title>
    <desc>Created with Sketch.</desc>
    <defs></defs>
    <g id="Symbols" stroke="none" stroke-width="1" fill="none" fill-rule="evenodd">
        <g id="icons/perils/mina_prylar/drulle">
            <g id="Page-1">
                <g id="Group-3" fill="#F9FAFC">
                    <path d="M20.0001,40.0002 L20.0001,40.0002 C8.9541,40.0002 0.0001,31.0452 0.0001,20.0002 C0.0001,8.9542 8.9541,0.0002 20.0001,0.0002 C31.0461,0.0002 40.0001,8.9542 40.0001,20.0002 C40.0001,31.0452 31.0461,40.0002 20.0001,40.0002" id="Fill-1"></path>
                </g>
                <polygon id="Stroke-4" fill="#1BE9B6" fill-rule="nonzero" points="22.1524 10.154 17.8474 10.154 17.8474 12.154 22.1524 12.154"></polygon>
                <g id="Group-13" transform="translate(5.000000, 5.000000)">
                    <path d="M22.1964,7.8302 L22.1964,26.7702 C22.1964,27.112475 21.9155556,27.3932 21.5734,27.3932 L8.4264,27.3932 C8.08368475,27.3932 7.8034,27.1129153 7.8034,26.7702 L7.8034,14.8522 L5.8034,14.8522 L5.8034,26.7702 C5.8034,28.2174847 6.97911525,29.3932 8.4264,29.3932 L21.5734,29.3932 C23.0199347,29.3932 24.1964,28.2172349 24.1964,26.7702 L24.1964,7.8302 L22.1964,7.8302 Z" id="Stroke-5" fill="#009175" fill-rule="nonzero"></path>
                    <path d="M7.8038,16.8586 L7.8038,3.2296 C7.8038,2.88688475 8.08408475,2.6066 8.4268,2.6066 L21.5738,2.6066 C21.9159556,2.6066 22.1968,2.887325 22.1968,3.2296 L22.1968,14.5466 L24.1968,14.5466 L24.1968,3.2296 C24.1968,1.78256506 23.0203347,0.6066 21.5738,0.6066 L8.4268,0.6066 C6.97951525,0.6066 5.8038,1.78231525 5.8038,3.2296 L5.8038,16.8586 L7.8038,16.8586 Z" id="Stroke-7" fill="#1BE9B6" fill-rule="nonzero"></path>
                    <path d="M16.5225,23.7946 C16.5225,22.9536 15.8405,22.2726 15.0005,22.2726 C14.1595,22.2726 13.4775,22.9536 13.4775,23.7946 C13.4775,24.6356 14.1595,25.3166 15.0005,25.3166 C15.8405,25.3166 16.5225,24.6356 16.5225,23.7946" id="Fill-9" fill="#009175"></path>
                    <path d="M0.9971,14.8083 C1.87260066,14.8083 2.26230879,15.0073277 3.14766089,15.7609602 C4.36186932,16.7945229 5.13885653,17.1913 6.5961,17.1913 C8.05307971,17.1913 8.82996217,16.7946802 10.0439049,15.7617127 C10.9302768,15.0074816 11.3204627,14.8083 12.1971,14.8083 C13.0732256,14.8083 13.4630868,15.0073799 14.348978,15.7613365 C15.5630868,16.7946299 16.3398922,17.1913 17.7971,17.1913 C19.2549986,17.1913 20.0323478,16.7946214 21.2468957,15.7615078 C22.1334083,15.0074262 22.5235878,14.8083 23.4001,14.8083 C24.2766122,14.8083 24.6667917,15.0074262 25.5529293,15.7611888 C26.7678522,16.7946214 27.5452014,17.1913 29.0031,17.1913 L29.0031,15.1913 C28.125957,15.1913 27.7355353,14.9920692 26.8491457,14.2380922 C25.6344707,13.2048706 24.8574073,12.8083 23.4001,12.8083 C21.9427927,12.8083 21.1657293,13.2048706 19.9514293,14.2377732 C19.0646647,14.9920692 18.674243,15.1913 17.7971,15.1913 C16.9209744,15.1913 16.5311132,14.9922201 15.645222,14.2382635 C14.4311132,13.2049701 13.6543078,12.8083 12.1971,12.8083 C10.739529,12.8083 9.96236079,13.2050279 8.74817013,14.2382064 C7.86205027,14.992223 7.47210645,15.1913 6.5961,15.1913 C5.71996847,15.1913 5.33001825,14.9921676 4.44441411,14.2383206 C3.23045364,13.204969 2.45375218,12.8083 0.9971,12.8083 L0.9971,14.8083 Z" id="Stroke-11" fill="#009175" fill-rule="nonzero"></path>
                </g>
            </g>
        </g>
    </g>
</svg>