<?xml version="1.0" encoding="UTF-8"?>
<svg width="40px" height="40px" viewBox="0 0 40 40" version="1.1" xmlns="http://www.w3.org/2000/svg" xmlns:xlink="http://www.w3.org/1999/xlink">
    <!-- Generator: Sketch 47.1 (45422) - http://www.bohemiancoding.com/sketch -->
    <title>icons/perils/mina_prylar/skadegorelse</title>
    <desc>Created with Sketch.</desc>
    <defs>
        <polygon id="path-1" points="0 40 0 0 40 0 40 40 0.0001 40 40.0001 40.0001 40.0001 0.0001 0.0001 0.0001 0.0001 40"></polygon>
    </defs>
    <g id="Symbols" stroke="none" stroke-width="1" fill="none" fill-rule="evenodd">
        <g id="icons/perils/mina_prylar/skadegorelse">
            <g id="Page-1-Copy-5">
                <g id="Group-3" fill="#F9FAFC">
                    <path d="M20,40 L20,40 C8.954,40 0,31.046 0,20 C0,8.954 8.954,7.10534604e-15 20,7.10534604e-15 C31.046,7.10534604e-15 40,8.954 40,20 C40,31.046 31.046,40 20,40" id="Fill-1"></path>
                </g>
                <g id="Page-1">
                    <g id="Group-3">
                        <mask id="mask-2" fill="white">
                            <use xlink:href="#path-1"></use>
                        </mask>
                        <g id="Clip-2"></g>
                        <path d="M20.0001,40.0001 L20.0001,40.0001 C8.9541,40.0001 0.0001,31.0461 0.0001,20.0001 C0.0001,8.9541 8.9541,0.0001 20.0001,0.0001 C31.0461,0.0001 40.0001,8.9541 40.0001,20.0001 C40.0001,31.0461 31.0461,40.0001 20.0001,40.0001" id="Fill-1" fill="#E9ECEF" mask="url(#mask-2)"></path>
                    </g>
                    <g id="Group-26" transform="translate(5.000000, 8.000000)" fill-rule="nonzero">
                        <path d="M13.6640932,17.4550932 L13.7696621,17.3633557 L26.3935902,7.85740988 C27.8124151,6.78882012 27.9581091,4.71232265 26.7020932,3.45630678 C25.4467285,2.20094205 23.3694851,2.34644943 22.3020368,3.76474783 L12.7950368,16.3897478 L12.7033068,16.4953068 L8.01756247,21.1810511 L8.97805112,22.1411353 L13.6640932,17.4550932 Z M11.2395286,15.1306578 L20.7042083,2.561858 C22.5026807,0.172261656 26.0013961,-0.0728174425 28.1163068,2.04209322 C30.2318659,4.15765237 29.9864651,7.65521824 27.5967379,9.4550443 L15.0287378,18.9188758 L8.97834888,24.9692647 L5.18883753,21.1813489 L11.2395286,15.1306578 Z" id="Stroke-4" fill="#1BE9B6"></path>
                        <path d="M10.2716068,23.4335932 L6.72560678,19.8875932 C6.33508249,19.4970689 5.70191751,19.4970689 5.31139322,19.8875932 C4.92086893,20.2781175 4.92086893,20.9112825 5.31139322,21.3018068 L8.85739322,24.8478068 C9.24791751,25.2383311 9.88108249,25.2383311 10.2716068,24.8478068 C10.6621311,24.4572825 10.6621311,23.8241175 10.2716068,23.4335932 Z" id="Stroke-6" fill="#009175"></path>
                        <path d="M2.6544,9.9727 L1.6994,9.9727 C1.14711525,9.9727 0.6994,10.4204153 0.6994,10.9727 C0.6994,11.5249847 1.14711525,11.9727 1.6994,11.9727 L2.6544,11.9727 C3.20668475,11.9727 3.6544,11.5249847 3.6544,10.9727 C3.6544,10.4204153 3.20668475,9.9727 2.6544,9.9727 Z" id="Stroke-8" fill="#1BE9B6"></path>
                        <polygon id="Stroke-10" fill="#009175" points="9.68570678 24.2619068 14.3717068 19.5759068 12.9574932 18.1616932 8.27149322 22.8476932"></polygon>
                        <polygon id="Stroke-12" fill="#009175" points="7.34290678 21.9191068 12.0289068 17.2331068 10.6146932 15.8188932 5.92869322 20.5048932"></polygon>
                        <polygon id="Stroke-14" fill="#009175" points="15.0783135 18.8689022 11.2888022 15.0809865 9.87488647 16.4954978 13.6643978 20.2834135"></polygon>
                        <path d="M9.1544,9.9727 L5.6994,9.9727 C5.14711525,9.9727 4.6994,10.4204153 4.6994,10.9727 C4.6994,11.5249847 5.14711525,11.9727 5.6994,11.9727 L9.1544,11.9727 C9.70668475,11.9727 10.1544,11.5249847 10.1544,10.9727 C10.1544,10.4204153 9.70668475,9.9727 9.1544,9.9727 Z" id="Stroke-16" fill="#1BE9B6"></path>
                        <path d="M8.9542,0.5279 L7.9992,0.5279 C7.44691525,0.5279 6.9992,0.97561525 6.9992,1.5279 C6.9992,2.08018475 7.44691525,2.5279 7.9992,2.5279 L8.9542,2.5279 C9.50648475,2.5279 9.9542,2.08018475 9.9542,1.5279 C9.9542,0.97561525 9.50648475,0.5279 8.9542,0.5279 Z" id="Stroke-18" fill="#1BE9B6"></path>
                        <path d="M15.4542,0.5279 L11.9992,0.5279 C11.4469153,0.5279 10.9992,0.97561525 10.9992,1.5279 C10.9992,2.08018475 11.4469153,2.5279 11.9992,2.5279 L15.4542,2.5279 C16.0064847,2.5279 16.4542,2.08018475 16.4542,1.5279 C16.4542,0.97561525 16.0064847,0.5279 15.4542,0.5279 Z" id="Stroke-20" fill="#1BE9B6"></path>
                        <path d="M8.1036,5.2506 L4.1496,5.2506 C3.59731525,5.2506 3.1496,5.69831525 3.1496,6.2506 C3.1496,6.80288475 3.59731525,7.2506 4.1496,7.2506 L8.1036,7.2506 C8.65588475,7.2506 9.1036,6.80288475 9.1036,6.2506 C9.1036,5.69831525 8.65588475,5.2506 8.1036,5.2506 Z" id="Stroke-22" fill="#1BE9B6"></path>
                        <path d="M12.6036,5.2506 L11.1496,5.2506 C10.5973153,5.2506 10.1496,5.69831525 10.1496,6.2506 C10.1496,6.80288475 10.5973153,7.2506 11.1496,7.2506 L12.6036,7.2506 C13.1558847,7.2506 13.6036,6.80288475 13.6036,6.2506 C13.6036,5.69831525 13.1558847,5.2506 12.6036,5.2506 Z" id="Stroke-24" fill="#1BE9B6"></path>
                    </g>
                </g>
            </g>
        </g>
    </g>
</svg>