<?xml version="1.0" encoding="UTF-8"?>
<svg width="40px" height="40px" viewBox="0 0 40 40" version="1.1" xmlns="http://www.w3.org/2000/svg" xmlns:xlink="http://www.w3.org/1999/xlink">
    <!-- Generator: Sketch 47.1 (45422) - http://www.bohemiancoding.com/sketch -->
    <title>icons/profil/personlig_info</title>
    <desc>Created with Sketch.</desc>
    <defs></defs>
    <g id="Symbols" stroke="none" stroke-width="1" fill="none" fill-rule="evenodd">
        <g id="icons/profil/personlig_info">
            <circle id="Oval" fill="#F9FAFC" cx="20" cy="20" r="20"></circle>
            <g id="Group-3" transform="translate(3.000000, 7.000000)" fill-rule="nonzero">
                <polygon id="Stroke-1" fill="#651EFF" points="26.720771 15.7413403 33.927021 8.53452209 32.5127517 7.12036428 25.3065017 14.3271825"></polygon>
                <path d="M24.4074432,7.82767045 C24.4074432,6.5757548 23.3924353,5.560625 22.1403977,5.560625 C20.8883601,5.560625 19.8733523,6.5757548 19.8733523,7.82767045 C19.8733523,9.07993116 20.888137,10.0947159 22.1403977,10.0947159 C23.3926584,10.0947159 24.4074432,9.07993116 24.4074432,7.82767045 Z M26.4074432,7.82767045 C26.4074432,10.1845007 24.4972279,12.0947159 22.1403977,12.0947159 C19.7835675,12.0947159 17.8733523,10.1845007 17.8733523,7.82767045 C17.8733523,5.47123908 19.7837368,3.560625 22.1403977,3.560625 C24.4970586,3.560625 26.4074432,5.47123908 26.4074432,7.82767045 Z" id="Stroke-3" fill="#0F007A"></path>
                <path d="M27.9699432,24.0114773 L27.9699432,17.9131818 C27.9699432,14.6934615 25.359906,12.0836364 22.1403977,12.0836364 C18.9208895,12.0836364 16.3108523,14.6934615 16.3108523,17.9131818 L16.3108523,23.8796591 L18.3108523,23.8796591 L18.3108523,17.9131818 C18.3108523,15.7980674 20.0254226,14.0836364 22.1403977,14.0836364 C24.2553729,14.0836364 25.9699432,15.7980674 25.9699432,17.9131818 L25.9699432,24.0114773 L27.9699432,24.0114773 Z" id="Stroke-5" fill="#0F007A"></path>
                <polygon id="Stroke-7" fill="#0F007A" points="9.3163392 10.7677506 2.10895283 3.55979609 0.694683531 4.97395391 7.90206989 12.1819085"></polygon>
                <path d="M14.7483523,4.26710227 C14.7483523,3.01484157 13.7335675,2.00005682 12.4813068,2.00005682 C11.2290461,2.00005682 10.2142614,3.01484157 10.2142614,4.26710227 C10.2142614,5.51936298 11.2290461,6.53414773 12.4813068,6.53414773 C13.7335675,6.53414773 14.7483523,5.51936298 14.7483523,4.26710227 Z M16.7483523,4.26710227 C16.7483523,6.62393248 14.838137,8.53414773 12.4813068,8.53414773 C10.1244766,8.53414773 8.21426136,6.62393248 8.21426136,4.26710227 C8.21426136,1.91027207 10.1244766,5.68181818e-05 12.4813068,5.68181818e-05 C14.838137,5.68181818e-05 16.7483523,1.91027207 16.7483523,4.26710227 Z" id="Stroke-9" fill="#651EFF"></path>
                <path d="M18.3108523,26.0001136 L18.3108523,14.3523864 C18.3108523,11.1330562 15.700637,8.52284091 12.4813068,8.52284091 C9.26197661,8.52284091 6.65176136,11.1330562 6.65176136,14.3523864 L6.65176136,16.4830682 L8.65176136,16.4830682 L8.65176136,14.3523864 C8.65176136,12.2376257 10.3665461,10.5228409 12.4813068,10.5228409 C14.5960675,10.5228409 16.3108523,12.2376257 16.3108523,14.3523864 L16.3108523,26.0001136 L18.3108523,26.0001136 Z" id="Stroke-11" fill="#651EFF"></path>
                <path d="M9.93045455,19.7501136 C9.93045455,18.498076 8.91532475,17.4830682 7.66340909,17.4830682 C6.41114839,17.4830682 5.39636364,18.4978529 5.39636364,19.7501136 C5.39636364,21.0023743 6.41114839,22.0171591 7.66340909,22.0171591 C8.91532475,22.0171591 9.93045455,21.0021512 9.93045455,19.7501136 Z M11.9304545,19.7501136 C11.9304545,22.1067745 10.0198405,24.0171591 7.66340909,24.0171591 C5.30657889,24.0171591 3.39636364,22.1069438 3.39636364,19.7501136 C3.39636364,17.3932834 5.30657889,15.4830682 7.66340909,15.4830682 C10.0198405,15.4830682 11.9304545,17.3934528 11.9304545,19.7501136 Z" id="Stroke-14" fill="#0F007A"></path>
            </g>
        </g>
    </g>
</svg>