<?xml version="1.0" encoding="UTF-8"?>
<svg width="40px" height="40px" viewBox="0 0 40 40" version="1.1" xmlns="http://www.w3.org/2000/svg" xmlns:xlink="http://www.w3.org/1999/xlink">
    <!-- Generator: Sketch 47.1 (45422) - http://www.bohemiancoding.com/sketch -->
    <title>icons/perils/min_lagenhet/ovader</title>
    <desc>Created with Sketch.</desc>
    <defs></defs>
    <g id="Symbols" stroke="none" stroke-width="1" fill="none" fill-rule="evenodd">
        <g id="icons/perils/min_lagenhet/ovader">
            <g id="Page-1">
                <g id="Group-3" fill="#F9FAFC">
                    <path d="M20,40 L20,40 C8.955,40 4.05009278e-13,31.046 4.05009278e-13,20 C4.05009278e-13,8.955 8.955,7.10534604e-15 20,7.10534604e-15 C31.046,7.10534604e-15 40,8.955 40,20 C40,31.046 31.046,40 20,40" id="Fill-1"></path>
                </g>
                <polygon id="Stroke-4" fill="#AA0045" fill-rule="nonzero" points="21.4944 35.4083393 32.1438153 24.4112 28.5084684 24.4112 29.5524989 21.7675091 27.6923011 21.0328909 25.5683316 26.4112 27.4229847 26.4112 23.4944 30.4680607 23.4944 26.6932 21.4354 26.6932 21.4354 21.4002 19.4354 21.4002 19.4354 28.6932 21.4944 28.6932"></polygon>
                <path d="M10.4041,21.389 L10.4041,26.233 C10.4041,26.7852847 10.8518153,27.233 11.4041,27.233 C11.9563847,27.233 12.4041,26.7852847 12.4041,26.233 L12.4041,21.389 C12.4041,20.8367153 11.9563847,20.389 11.4041,20.389 C10.8518153,20.389 10.4041,20.8367153 10.4041,21.389 Z" id="Stroke-5" fill="#AA0045" fill-rule="nonzero"></path>
                <path d="M14.8172,21.7894 L14.8172,31.5664 C14.8172,32.1186847 15.2649153,32.5664 15.8172,32.5664 C16.3694847,32.5664 16.8172,32.1186847 16.8172,31.5664 L16.8172,21.7894 C16.8172,21.2371153 16.3694847,20.7894 15.8172,20.7894 C15.2649153,20.7894 14.8172,21.2371153 14.8172,21.7894 Z" id="Stroke-6" fill="#AA0045" fill-rule="nonzero"></path>
                <path d="M30.4666,13.4891 C32.9388847,13.4891 34.9226,15.4728153 34.9226,17.9451 C34.9226,20.4165834 32.938686,22.4001 30.4666,22.4001 L10.1166,22.4001 C7.41431525,22.4001 5.2776,20.2633847 5.2776,17.5611 C5.2776,14.9347813 7.29448319,12.842941 9.88773961,12.7262353 C10.0065112,8.44105143 13.4803892,5.0421 17.7966,5.0421 C21.007211,5.0421 23.8403861,6.99055303 25.0628304,9.82776905 C25.441224,9.70840812 25.8221968,9.6491 26.2436,9.6491 C28.4081069,9.6491 30.1884462,11.3554831 30.3081834,13.4916054 C30.3606483,13.4899285 30.4134487,13.4891 30.4666,13.4891 Z M30.4666,15.4891 C30.1080409,15.4891 29.81185,15.5508131 29.531037,15.6909151 C28.6720927,16.1194556 27.7614242,15.2091839 28.1895905,14.3500529 C28.2662865,14.1961597 28.3146,13.9665525 28.3146,13.7211 C28.3146,12.5834897 27.3804201,11.6491 26.2436,11.6491 C25.828828,11.6491 25.4815054,11.765025 24.9722173,12.055641 C24.4012326,12.3814631 23.6765758,12.0771252 23.5094525,11.4413159 C22.8384363,8.88847966 20.4921415,7.0421 17.7966,7.0421 C14.5090162,7.0421 11.8846,9.66625333 11.8846,12.9531 C11.8846134,13.2940078 11.8942065,13.4338479 11.9098702,13.4806356 C12.1606741,14.2297902 11.4846082,14.9602522 10.718321,14.7680564 C10.6318105,14.7463583 10.5565026,14.7345879 10.4697105,14.7282907 C10.3883935,14.7223907 10.3146396,14.7211 10.1166,14.7211 C8.51877251,14.7211 7.2776,15.962497 7.2776,17.5611 C7.2776,19.1588153 8.51888475,20.4001 10.1166,20.4001 L30.4666,20.4001 C31.8342062,20.4001 32.9226,19.3119242 32.9226,17.9451 C32.9226,16.5773847 31.8343153,15.4891 30.4666,15.4891 Z" id="Stroke-7" fill="#FF8A80" fill-rule="nonzero"></path>
            </g>
        </g>
    </g>
</svg>